<?xml version="1.0" encoding="utf-8"?>
<!-- Generator: Adobe Illustrator 27.4.0, SVG Export Plug-In . SVG Version: 6.00 Build 0)  -->
<svg version="1.1" id="Capa_1" xmlns="http://www.w3.org/2000/svg" xmlns:xlink="http://www.w3.org/1999/xlink" x="0px" y="0px"
	 viewBox="0 0 800 800" style="enable-background:new 0 0 800 800;" xml:space="preserve">
<style type="text/css">
	.st0{fill:url(#SVGID_1_);}
	.st1{fill:url(#SVGID_00000068676068689566193920000012784257275601321649_);}
	.st2{fill:url(#SVGID_00000150092621025136186080000012130478657854284418_);}
	.st3{fill:url(#SVGID_00000082349349549297379480000001198888080049190840_);}
	.st4{fill:url(#SVGID_00000097490580749612987580000012987768726635529384_);}
	.st5{fill:url(#SVGID_00000144309135832096477250000000254762739771138695_);}
</style>
<g>
	<g>
		<g>
			<linearGradient id="SVGID_1_" gradientUnits="userSpaceOnUse" x1="178.9423" y1="341.5511" x2="403.1868" y2="341.5511">
				<stop  offset="0" style="stop-color:#D49B6C"/>
				<stop  offset="0.1473" style="stop-color:#DFB592"/>
				<stop  offset="0.328" style="stop-color:#EACFB9"/>
				<stop  offset="0.5069" style="stop-color:#F3E4D7"/>
				<stop  offset="0.6809" style="stop-color:#FAF3ED"/>
				<stop  offset="0.8478" style="stop-color:#FEFCFB"/>
				<stop  offset="1" style="stop-color:#FFFFFF"/>
			</linearGradient>
			<path class="st0" d="M188.1,453.7c-5.1,0-9.1-4.1-9.1-9.1c0-118.6,96.5-215.1,215.1-215.1c5.1,0,9.1,4.1,9.1,9.1
				c0,5.1-4.1,9.1-9.1,9.1c-108.5,0-196.8,88.3-196.8,196.8C197.2,449.6,193.1,453.7,188.1,453.7z"/>
		</g>
		<g>
			
				<linearGradient id="SVGID_00000005965588565210952850000004527357339196507069_" gradientUnits="userSpaceOnUse" x1="374.8298" y1="48.1313" x2="471.0943" y2="48.1313">
				<stop  offset="0" style="stop-color:#D49B6C"/>
				<stop  offset="0.1473" style="stop-color:#DFB592"/>
				<stop  offset="0.328" style="stop-color:#EACFB9"/>
				<stop  offset="0.5069" style="stop-color:#F3E4D7"/>
				<stop  offset="0.6809" style="stop-color:#FAF3ED"/>
				<stop  offset="0.8478" style="stop-color:#FEFCFB"/>
				<stop  offset="1" style="stop-color:#FFFFFF"/>
			</linearGradient>
			<path style="fill:url(#SVGID_00000005965588565210952850000004527357339196507069_);" d="M423,96.3c-5.1,0-9.1-4.1-9.1-9.1
				c0-7.8-22-29.8-29.8-29.8c-5.1,0-9.1-4.1-9.1-9.1s4.1-9.1,9.1-9.1c7.8,0,29.8-22,29.8-29.8c0-5.1,4.1-9.1,9.1-9.1
				c5.1,0,9.1,4.1,9.1,9.1c0,7.8,22,29.8,29.8,29.8c5.1,0,9.1,4.1,9.1,9.1s-4.1,9.1-9.1,9.1c-7.8,0-29.8,22-29.8,29.8
				C432.1,92.2,428,96.3,423,96.3z M405.4,48.1c6.5,4.8,12.8,11.1,17.6,17.6c4.8-6.5,11.1-12.8,17.6-17.6
				c-6.5-4.8-12.8-11.1-17.6-17.6C418.1,37,411.9,43.3,405.4,48.1z"/>
		</g>
		<g>
			
				<linearGradient id="SVGID_00000144326415023632753610000013671532020559424681_" gradientUnits="userSpaceOnUse" x1="39.7428" y1="254.4417" x2="167.732" y2="254.4417">
				<stop  offset="0" style="stop-color:#D49B6C"/>
				<stop  offset="0.1473" style="stop-color:#DFB592"/>
				<stop  offset="0.328" style="stop-color:#EACFB9"/>
				<stop  offset="0.5069" style="stop-color:#F3E4D7"/>
				<stop  offset="0.6809" style="stop-color:#FAF3ED"/>
				<stop  offset="0.8478" style="stop-color:#FEFCFB"/>
				<stop  offset="1" style="stop-color:#FFFFFF"/>
			</linearGradient>
			<path style="fill:url(#SVGID_00000144326415023632753610000013671532020559424681_);" d="M103.7,318.4c-5.1,0-9.1-4.1-9.1-9.1
				c0-13.2-32.5-45.7-45.7-45.7c-5.1,0-9.1-4.1-9.1-9.1s4.1-9.1,9.1-9.1c13.2,0,45.7-32.5,45.7-45.7c0-5.1,4.1-9.1,9.1-9.1
				c5.1,0,9.1,4.1,9.1,9.1c0,13.2,32.5,45.7,45.7,45.7c5.1,0,9.1,4.1,9.1,9.1s-4.1,9.1-9.1,9.1c-13.2,0-45.7,32.5-45.7,45.7
				C112.9,314.3,108.8,318.4,103.7,318.4z M72.6,254.4c11.7,7.8,23.4,19.5,31.1,31.1c7.8-11.7,19.5-23.4,31.1-31.1
				c-11.7-7.8-23.4-19.5-31.1-31.1C96,235,84.3,246.7,72.6,254.4z"/>
		</g>
		<g>
			
				<linearGradient id="SVGID_00000170250744311133767950000017890268362710692026_" gradientUnits="userSpaceOnUse" x1="653.8709" y1="333.2138" x2="760.2609" y2="333.2138">
				<stop  offset="0" style="stop-color:#D49B6C"/>
				<stop  offset="0.1473" style="stop-color:#DFB592"/>
				<stop  offset="0.328" style="stop-color:#EACFB9"/>
				<stop  offset="0.5069" style="stop-color:#F3E4D7"/>
				<stop  offset="0.6809" style="stop-color:#FAF3ED"/>
				<stop  offset="0.8478" style="stop-color:#FEFCFB"/>
				<stop  offset="1" style="stop-color:#FFFFFF"/>
			</linearGradient>
			<path style="fill:url(#SVGID_00000170250744311133767950000017890268362710692026_);" d="M707.1,386.4c-5.1,0-9.1-4.1-9.1-9.1
				c0-3-4.3-11.5-13.8-21.1c-9.5-9.5-18.1-13.8-21.1-13.8c-5.1,0-9.1-4.1-9.1-9.1c0-5.1,4.1-9.1,9.1-9.1c3,0,11.5-4.3,21.1-13.8
				c9.5-9.5,13.8-18.1,13.8-21.1c0-5.1,4.1-9.1,9.1-9.1s9.1,4.1,9.1,9.1c0,3,4.3,11.5,13.8,21.1c9.5,9.5,18.1,13.8,21.1,13.8
				c5.1,0,9.1,4.1,9.1,9.1c0,5.1-4.1,9.1-9.1,9.1c-3,0-11.5,4.3-21.1,13.8c-9.5,9.5-13.8,18.1-13.8,21.1
				C716.2,382.3,712.1,386.4,707.1,386.4z M685.3,333.2c8.1,5.8,16,13.6,21.7,21.7c5.8-8.1,13.6-16,21.7-21.7
				c-8.1-5.8-16-13.6-21.7-21.7C701.3,319.6,693.4,327.4,685.3,333.2z"/>
		</g>
		<g>
			
				<linearGradient id="SVGID_00000062187689460693236420000016238886473293696944_" gradientUnits="userSpaceOnUse" x1="461.3438" y1="121.9358" x2="609.7084" y2="121.9358">
				<stop  offset="0" style="stop-color:#D49B6C"/>
				<stop  offset="0.1473" style="stop-color:#DFB592"/>
				<stop  offset="0.328" style="stop-color:#EACFB9"/>
				<stop  offset="0.5069" style="stop-color:#F3E4D7"/>
				<stop  offset="0.6809" style="stop-color:#FAF3ED"/>
				<stop  offset="0.8478" style="stop-color:#FEFCFB"/>
				<stop  offset="1" style="stop-color:#FFFFFF"/>
			</linearGradient>
			<path style="fill:url(#SVGID_00000062187689460693236420000016238886473293696944_);" d="M535.5,196.1c-5.1,0-9.1-4.1-9.1-9.1
				c0-16.7-39.2-55.9-55.9-55.9c-5.1,0-9.1-4.1-9.1-9.1s4.1-9.1,9.1-9.1c16.7,0,55.9-39.2,55.9-55.9c0-5.1,4.1-9.1,9.1-9.1
				s9.1,4.1,9.1,9.1c0,16.7,39.2,55.9,55.9,55.9c5.1,0,9.1,4.1,9.1,9.1s-4.1,9.1-9.1,9.1c-16.7,0-55.9,39.2-55.9,55.9
				C544.7,192,540.6,196.1,535.5,196.1z M495.7,121.9c15,9.4,30.4,24.8,39.8,39.8c9.4-15,24.8-30.4,39.8-39.8
				c-15-9.4-30.4-24.8-39.8-39.8C526.1,97.1,510.7,112.5,495.7,121.9z"/>
		</g>
		
			<linearGradient id="SVGID_00000105417453680750363770000009869938703046680194_" gradientUnits="userSpaceOnUse" x1="133.5961" y1="492.0423" x2="654.4764" y2="492.0423">
			<stop  offset="0" style="stop-color:#D49B6C"/>
			<stop  offset="0.1473" style="stop-color:#DFB592"/>
			<stop  offset="0.328" style="stop-color:#EACFB9"/>
			<stop  offset="0.5069" style="stop-color:#F3E4D7"/>
			<stop  offset="0.6809" style="stop-color:#FAF3ED"/>
			<stop  offset="0.8478" style="stop-color:#FEFCFB"/>
			<stop  offset="1" style="stop-color:#FFFFFF"/>
		</linearGradient>
		<path style="fill:url(#SVGID_00000105417453680750363770000009869938703046680194_);" d="M585.4,737.4h-5.2l-25.8-87.7
			c60.9-47.7,100.1-121.9,100.1-205.1c0-143.6-116.8-260.4-260.4-260.4c-143.6,0-260.4,116.8-260.4,260.4
			c0,83.2,39.2,157.4,100.1,205.1l-25.8,87.7h-5.2c-15.8,0-28.6,12.8-28.6,28.6v5.4c0,15.8,12.8,28.6,28.6,28.6h382.6
			c15.8,0,28.6-12.8,28.6-28.6V766C614,750.2,601.1,737.4,585.4,737.4z M151.9,444.5c0-133.5,108.6-242.1,242.1-242.1
			S636.2,311,636.2,444.5S527.6,686.7,394,686.7S151.9,578,151.9,444.5z M249.5,661C290.8,688.8,340.6,705,394,705
			s103.2-16.2,144.6-43.9l22.5,76.3H227L249.5,661z M595.7,771.4c0,5.7-4.6,10.3-10.3,10.3H202.7c-5.7,0-10.3-4.6-10.3-10.3V766
			c0-5.7,4.6-10.3,10.3-10.3h382.6c5.7,0,10.3,4.6,10.3,10.3L595.7,771.4L595.7,771.4z"/>
	</g>
</g>
</svg>
