<?xml version="1.0" encoding="UTF-8"?><svg id="Layer_1" xmlns="http://www.w3.org/2000/svg" viewBox="0 0 320 320"><defs><style>.cls-1{fill:silver;}.cls-2{fill:none;stroke:silver;stroke-miterlimit:10;stroke-width:.5px;}</style></defs><path class="cls-1" d="m154.38,299.3c-76.65,0-139.01-62.36-139.01-139.01S77.72,21.27,154.38,21.27s139.01,62.36,139.01,139.01-62.36,139.01-139.01,139.01Zm0-276.82c-75.99,0-137.8,61.82-137.8,137.8s61.82,137.8,137.8,137.8,137.8-61.82,137.8-137.8S230.36,22.48,154.38,22.48Z"/><path class="cls-1" d="m154.38,294.21c-73.85,0-133.93-60.08-133.93-133.93S80.53,26.36,154.38,26.36s133.93,60.08,133.93,133.93-60.08,133.93-133.93,133.93Zm0-266.64c-73.18,0-132.72,59.54-132.72,132.72s59.54,132.72,132.72,132.72,132.72-59.54,132.72-132.72S227.55,27.57,154.38,27.57Z"/><path class="cls-1" d="m168.6,107.07l21.61-80.64-.68-.18-21.61,80.64c.23.06.45.12.68.18Z"/><path class="cls-1" d="m140.11,107.08l-21.66-80.83-.68.18,21.66,80.84c.23-.06.45-.13.68-.19Z"/><path class="cls-1" d="m115.53,121.27l-59.3-59.3-.5.5,59.31,59.31c.16-.17.32-.34.49-.51Z"/><path class="cls-1" d="m101.26,145.74l-81.06-21.72-.18.68,81.05,21.72c.06-.23.13-.45.19-.68Z"/><path class="cls-1" d="m193.33,121.39l58.92-58.92-.5-.5-58.93,58.93c.17.16.34.32.51.49Z"/><path class="cls-1" d="m207.63,146.22l80.34-21.53-.18-.68-80.35,21.53c.06.23.13.45.19.68Z"/><path class="cls-1" d="m207.46,174.92l80.32,21.52.18-.68-80.31-21.52c-.06.23-.13.45-.19.68Z"/><path class="cls-1" d="m101.04,174.06l-81.03,21.71.18.68,81.04-21.71c-.06-.23-.13-.45-.19-.68Z"/><path class="cls-1" d="m167.94,213.67l21.58,80.54.68-.18-21.58-80.54c-.23.06-.45.13-.68.18Z"/><path class="cls-1" d="m192.88,199.62l58.87,58.87.5-.5-58.87-58.87c-.17.17-.34.33-.51.49Z"/><path class="cls-1" d="m114.99,198.73l-59.26,59.26.5.5,59.25-59.25c-.17-.17-.32-.34-.49-.51Z"/><path class="cls-1" d="m139.41,213.28l-21.64,80.75.68.18,21.63-80.74c-.23-.06-.45-.13-.68-.19Z"/><polygon class="cls-1" points="220.48 113.94 219.91 115.47 220.88 116.47 219.29 116.64 219.63 118 218.25 117.43 217.61 118.7 217.02 117.47 215.67 117.83 216.32 116.3 214.78 115.57 216.39 114.84 216.06 113.04 217.66 113.97 218.75 112.67 219.06 114.42 220.48 113.94"/><polygon class="cls-1" points="256.24 111.54 255.81 112.7 256.54 113.46 255.34 113.59 255.6 114.61 254.56 114.19 254.07 115.14 253.62 114.22 252.6 114.49 253.09 113.33 251.93 112.78 253.14 112.22 252.9 110.87 254.11 111.57 254.93 110.58 255.16 111.91 256.24 111.54"/><polygon class="cls-1" points="222.87 110.55 223.48 111.43 224.58 111.45 223.89 112.34 224.26 113.39 223.2 112.98 222.34 113.67 222.37 112.54 221.48 111.9 222.55 111.56 222.87 110.55"/><polygon class="cls-1" points="232.83 123.45 233.45 124.33 234.55 124.35 233.86 125.24 234.23 126.29 233.17 125.89 232.31 126.57 232.34 125.44 231.44 124.8 232.52 124.46 232.83 123.45"/><polygon class="cls-1" points="239.55 118.82 240.54 119.24 241.49 118.66 241.38 119.78 242.25 120.47 241.14 120.7 240.78 121.74 240.2 120.77 239.1 120.71 239.83 119.85 239.55 118.82"/><polygon class="cls-1" points="240.49 100.87 241.1 101.75 242.2 101.78 241.51 102.66 241.88 103.71 240.82 103.31 239.96 103.99 239.99 102.86 239.1 102.22 240.17 101.89 240.49 100.87"/><polygon class="cls-1" points="221.79 124.61 222.69 125.91 224.32 125.94 223.3 127.25 223.84 128.79 222.28 128.2 221.01 129.21 221.05 127.55 219.74 126.61 221.32 126.11 221.79 124.61"/><polygon class="cls-1" points="226.68 128.29 227.14 128.95 227.97 128.97 227.45 129.63 227.72 130.42 226.93 130.12 226.29 130.63 226.31 129.78 225.64 129.3 226.44 129.05 226.68 128.29"/><polygon class="cls-1" points="245.61 98.27 246.55 98.8 247.55 98.35 247.31 99.44 248.1 100.23 246.97 100.33 246.49 101.32 246.02 100.29 244.94 100.1 245.77 99.33 245.61 98.27"/><polygon class="cls-1" points="261.46 116.84 262.39 117.37 263.4 116.91 263.16 118.01 263.94 118.8 262.81 118.9 262.33 119.89 261.87 118.85 260.79 118.67 261.61 117.9 261.46 116.84"/><polygon class="cls-1" points="249.56 93.17 250.15 93.51 250.79 93.22 250.64 93.92 251.13 94.41 250.42 94.48 250.11 95.1 249.82 94.45 249.13 94.33 249.65 93.84 249.56 93.17"/><polygon class="cls-1" points="249.88 103.22 250.47 103.55 251.11 103.26 250.96 103.96 251.46 104.46 250.74 104.52 250.43 105.15 250.14 104.49 249.46 104.37 249.98 103.89 249.88 103.22"/><polygon class="cls-1" points="227.13 106.85 227.95 107.28 228.8 106.85 228.63 107.81 229.32 108.46 228.35 108.57 227.97 109.44 227.54 108.56 226.61 108.43 227.29 107.75 227.13 106.85"/><polygon class="cls-1" points="223.16 112.24 217.85 115.57 217.8 115.5 223.11 112.18 223.16 112.24"/><polygon class="cls-1" points="223.16 112.24 223.11 112.18 227.85 108.01 227.91 108.07 223.16 112.24"/><polygon class="cls-1" points="240.74 102.58 228.08 107.96 228.05 107.88 240.71 102.5 240.74 102.58"/><polygon class="cls-1" points="246.54 99.8 240.88 102.65 240.84 102.57 246.5 99.72 246.54 99.8"/><polygon class="cls-1" points="246.78 99.58 246.71 99.53 250.12 93.96 250.19 94.01 246.78 99.58"/><polygon class="cls-1" points="250.33 104.14 246.49 99.62 246.55 99.56 250.39 104.08 250.33 104.14"/><polygon class="cls-1" points="254.17 111.65 254.1 111.68 250.5 104.13 250.57 104.1 254.17 111.65"/><polygon class="cls-1" points="254.25 112.86 240.69 120.15 240.65 120.08 254.21 112.79 254.25 112.86"/><polygon class="cls-1" points="240.69 120.15 233.05 125.14 233.01 125.07 240.65 120.08 240.69 120.15"/><polygon class="cls-1" points="233.2 125.12 227.01 129.49 226.96 129.43 233.18 125.03 233.2 125.12"/><polygon class="cls-1" points="226.8 129.7 222.38 127.35 222.42 127.27 226.84 129.63 226.8 129.7"/><polygon class="cls-1" points="222.15 127.05 222.08 127.08 217.88 115.64 217.96 115.61 222.15 127.05"/><polygon class="cls-1" points="262.38 118.43 254.21 112.86 254.26 112.79 262.43 118.36 262.38 118.43"/><polygon class="cls-1" points="141.1 43.19 141.17 44.69 142.46 45.53 140.99 46.07 140.64 47.58 139.68 46.32 138.15 46.49 139.03 45.17 138.45 43.76 139.97 44.15 141.1 43.19"/><polygon class="cls-1" points="164.78 77.7 165.34 79.09 166.84 79.47 165.62 80.46 165.78 82 164.47 81.13 163.08 81.79 163.47 80.26 162.46 79.11 164.03 78.99 164.78 77.7"/><polygon class="cls-1" points="163.82 86.95 163.26 88.35 164.08 89.65 162.51 89.53 161.57 90.75 161.23 89.21 159.77 88.72 161.11 87.89 161.18 86.36 162.39 87.36 163.82 86.95"/><rect class="cls-1" x="151.61" y="40.92" width=".09" height="33.61" transform="translate(.79 117.48) rotate(-42.45)"/><rect class="cls-1" x="163.86" y="70.3" width=".09" height="9.56" transform="translate(-9.56 25.97) rotate(-8.8)"/><polygon class="cls-1" points="162.03 88.48 164.58 80.01 164.66 80.04 162.12 88.51 162.03 88.48"/><polygon class="cls-1" points="165.83 72.46 163.9 72.43 163.16 73.91 162.34 72.2 160.96 73.12 161.05 71.36 159.38 71.14 160.52 69.99 159.59 68.63 161.56 68.75 161.76 66.74 163.21 68.25 165.09 67.18 164.69 69.33 166.57 70.03 164.73 71.07 165.83 72.46"/><polygon class="cls-1" points="191.65 81.4 192.31 81.96 193.17 81.75 192.81 82.58 193.31 83.31 192.41 83.22 191.88 83.93 191.67 83.05 190.85 82.73 191.61 82.25 191.65 81.4"/><polygon class="cls-1" points="196.19 80.99 197.04 81.25 197.77 80.7 197.77 81.63 198.54 82.12 197.65 82.4 197.44 83.29 196.88 82.54 195.98 82.58 196.5 81.81 196.19 80.99"/><polygon class="cls-1" points="203.24 91.76 204.15 91.37 204.37 90.37 205.05 91.16 206.06 91.02 205.51 91.91 205.97 92.82 204.95 92.58 204.21 93.27 204.1 92.24 203.24 91.76"/><polygon class="cls-1" points="208.74 85.93 209.56 86.49 210.52 86.15 210.22 87.14 210.87 87.93 209.82 87.93 209.3 88.8 208.96 87.81 207.98 87.55 208.8 86.91 208.74 85.93"/><polygon class="cls-1" points="199.83 80.79 200.29 80.52 200.34 79.96 200.76 80.34 201.3 80.19 201.06 80.7 201.38 81.16 200.81 81.11 200.47 81.53 200.33 80.99 199.83 80.79"/><polygon class="cls-1" points="204.1 83.15 204.25 83.58 204.7 83.71 204.32 84 204.35 84.46 203.96 84.18 203.53 84.36 203.67 83.91 203.38 83.54 203.85 83.53 204.1 83.15"/><polygon class="cls-1" points="204.51 79.13 205.1 79.31 205.61 78.93 205.62 79.58 206.15 79.92 205.53 80.12 205.38 80.74 204.99 80.21 204.36 80.24 204.73 79.71 204.51 79.13"/><polygon class="cls-1" points="210.59 80.48 211.54 80.78 212.36 80.16 212.36 81.2 213.22 81.75 212.23 82.07 211.99 83.06 211.36 82.22 210.35 82.26 210.94 81.41 210.59 80.48"/><polygon class="cls-1" points="225.51 64.7 226.15 64.13 226.06 63.26 226.82 63.72 227.61 63.33 227.4 64.2 228.02 64.82 227.13 64.9 226.71 65.67 226.34 64.85 225.51 64.7"/><polygon class="cls-1" points="229.93 63.99 230.57 63.98 230.94 63.43 231.16 64.07 231.8 64.23 231.25 64.63 231.31 65.28 230.76 64.9 230.14 65.13 230.33 64.49 229.93 63.99"/><polygon class="cls-1" points="192.2 82.63 182.59 88.19 182.55 88.12 192.16 82.57 192.2 82.63"/><rect class="cls-1" x="192.16" y="82.23" width="4.4" height=".08" transform="translate(-10.14 30.08) rotate(-8.63)"/><polygon class="cls-1" points="200.65 80.8 197.22 81.96 197.19 81.89 200.63 80.72 200.65 80.8"/><polygon class="cls-1" points="204.06 83.78 204 83.84 200.7 80.77 200.76 80.71 204.06 83.78"/><polygon class="cls-1" points="204.14 83.87 204.06 83.85 205.22 79.75 205.29 79.77 204.14 83.87"/><polygon class="cls-1" points="211.74 81.65 205.24 79.8 205.26 79.72 211.77 81.57 211.74 81.65"/><polygon class="cls-1" points="217.34 75.33 211.91 81.6 211.85 81.55 217.28 75.28 217.34 75.33"/><polygon class="cls-1" points="226.86 64.35 217.48 75.18 217.43 75.13 226.8 64.3 226.86 64.35"/><polygon class="cls-1" points="230.81 64.47 226.85 64.32 226.85 64.24 230.81 64.39 230.81 64.47"/><polygon class="cls-1" points="209.53 87.25 209.46 87.22 211.72 81.6 211.79 81.62 209.53 87.25"/><polygon class="cls-1" points="209.52 87.36 205.03 91.87 204.97 91.81 209.47 87.31 209.52 87.36"/><rect class="cls-1" x="190.61" y="95.36" width="15.06" height=".08" transform="translate(-21.72 100.1) rotate(-26.93)"/><polygon class="cls-1" points="183.96 86.18 183.95 87.42 184.9 87.88 183.81 88.41 184.41 89.29 183.28 89.24 183.15 90.31 182.41 89.59 181.54 90.2 181.6 88.94 180.32 88.82 181.27 87.88 180.58 86.68 181.96 86.93 182.39 85.72 183.07 86.89 183.96 86.18"/><polygon class="cls-1" points="193.06 97.16 192.85 98.38 193.72 98.99 192.55 99.34 193 100.3 191.89 100.08 191.59 101.11 190.98 100.28 190.02 100.74 190.29 99.5 189.04 99.18 190.14 98.4 189.65 97.11 190.97 97.58 191.59 96.45 192.07 97.72 193.06 97.16"/><polygon class="cls-1" points="218.38 73.1 218.57 74.33 219.59 74.63 218.59 75.33 219.32 76.11 218.2 76.24 218.24 77.32 217.4 76.72 216.64 77.46 216.5 76.2 215.21 76.29 216.01 75.21 215.13 74.14 216.53 74.17 216.77 72.9 217.62 73.95 218.38 73.1"/><polygon class="cls-1" points="223.12 206.73 223.19 206.65 244.39 224.18 244.32 224.26 223.12 206.73"/><rect class="cls-1" x="218.14" y="199.63" width=".11" height="10.54" transform="translate(-48.83 340.14) rotate(-70.06)"/><polygon class="cls-1" points="213.36 202.95 213.33 202.85 230.46 198.59 230.49 198.69 213.36 202.95"/><rect class="cls-1" x="240.36" y="193.37" width=".11" height="21.74" transform="translate(-57.88 306.88) rotate(-59.34)"/><rect class="cls-1" x="251.3" y="209.64" width=".11" height="9.52" transform="translate(-53.71 87.59) rotate(-17.89)"/><polygon class="cls-1" points="244.38 224.27 244.33 224.17 252.76 219.15 252.82 219.24 244.38 224.27"/><polygon class="cls-1" points="249.84 209.85 252.66 204.07 252.76 204.12 249.94 209.9 249.84 209.85"/><polygon class="cls-1" points="252.77 204.1 252.73 203.99 262.21 200.43 262.25 200.53 252.77 204.1"/><polygon class="cls-1" points="264.86 208.25 262.12 200.63 262.22 200.6 264.97 208.22 264.86 208.25"/><polygon class="cls-1" points="214.89 205.87 213.35 205.11 212.21 206.03 212.19 204.36 210.75 204.58 211.47 203.2 210.22 202.4 211.56 201.91 211.32 200.47 212.85 201.3 213.76 199.77 214.37 201.51 216.26 201.36 215.14 202.93 216.39 204.19 214.53 204.34 214.89 205.87"/><polygon class="cls-1" points="247.61 222.61 246.73 224.4 247.82 225.87 245.83 225.73 245.98 227.5 244.4 226.49 243.32 227.93 242.85 226.27 241.09 226.42 242.24 224.64 240.48 223.4 242.65 222.83 242.64 220.52 244.08 222.03 245.37 220.64 245.37 222.91 247.61 222.61"/><polygon class="cls-1" points="264.23 200.59 263.04 201.26 262.87 202.65 261.83 201.67 260.46 202 261.1 200.71 260.33 199.53 261.76 199.71 262.68 198.66 262.98 200.06 264.23 200.59"/><polygon class="cls-1" points="251.88 208.44 251.23 209.81 251.99 211.18 250.41 210.96 249.39 212.15 249.13 210.57 247.68 210 249.08 209.23 249.24 207.69 250.41 208.77 251.88 208.44"/><polygon class="cls-1" points="266.02 207.21 265.7 208.12 266.27 208.94 265.26 208.91 264.69 209.73 264.41 208.75 263.46 208.48 264.3 207.9 264.29 206.91 265.11 207.52 266.02 207.21"/><polygon class="cls-1" points="253.99 218.04 253.67 218.95 254.25 219.77 253.23 219.74 252.66 220.57 252.39 219.58 251.43 219.31 252.27 218.73 252.26 217.74 253.08 218.35 253.99 218.04"/><polygon class="cls-1" points="231.15 197.02 231.66 197.85 232.48 198.03 231.73 198.85 231.96 199.84 231.01 199.44 230.18 200.02 230.26 199.01 229.48 198.39 230.64 198.03 231.15 197.02"/><polygon class="cls-1" points="222.97 205.21 223.48 206.03 224.51 206.08 223.87 206.84 224.16 207.79 223.22 207.38 222.42 207.95 222.5 206.93 221.73 206.31 222.67 206.08 222.97 205.21"/><polygon class="cls-1" points="253.85 203.06 253.53 203.98 254.1 204.8 253.09 204.77 252.52 205.59 252.25 204.6 251.29 204.34 252.13 203.76 252.12 202.77 252.94 203.37 253.85 203.06"/><polygon class="cls-1" points="158.93 266.35 160.44 234.06 160.57 234.06 159.05 266.36 158.93 266.35"/><rect class="cls-1" x="165.36" y="232.94" width=".12" height="20.88" transform="translate(-93.75 104) rotate(-27.53)"/><polygon class="cls-1" points="159.21 266.23 170.37 253.15 170.46 253.23 159.31 266.31 159.21 266.23"/><polygon class="cls-1" points="147.5 267.03 147.49 266.91 157.45 266.17 157.46 266.29 147.5 267.03"/><polygon class="cls-1" points="141.54 274.86 147.14 266.87 147.24 266.94 141.64 274.93 141.54 274.86"/><polygon class="cls-1" points="153.52 240.61 160.57 233.9 160.65 233.99 153.6 240.7 153.52 240.61"/><rect class="cls-1" x="147.19" y="240.79" width="6.46" height=".12" transform="translate(-17.99 12.22) rotate(-4.39)"/><polygon class="cls-1" points="147.03 241.13 142.14 231.28 142.25 231.22 147.14 241.08 147.03 241.13"/><polygon class="cls-1" points="174.23 252.44 172.76 253.86 173.32 255.52 171.43 254.84 171.08 256.56 169.83 255.18 168.42 256.26 168.42 254.55 166.71 254.23 168.27 252.85 166.93 251.21 169.13 251.24 169.74 249.05 171.04 250.95 172.97 250.07 172.37 252.22 174.23 252.44"/><polygon class="cls-1" points="162.84 232.53 161.96 234 162.67 235.62 160.92 235.21 159.64 236.43 159.52 234.63 157.95 233.83 159.61 233.12 159.95 231.41 161.15 232.74 162.84 232.53"/><polygon class="cls-1" points="161.54 264.87 160.67 266.35 161.37 267.97 159.62 267.55 158.35 268.78 158.22 266.97 156.66 266.18 158.32 265.47 158.65 263.75 159.86 265.09 161.54 264.87"/><polygon class="cls-1" points="148.75 265.95 148.18 266.91 148.64 267.97 147.5 267.7 146.67 268.5 146.59 267.32 145.57 266.8 146.65 266.34 146.87 265.22 147.65 266.09 148.75 265.95"/><polygon class="cls-1" points="147.83 242.01 147.16 241.66 146.46 241.99 146.61 241.22 146.04 240.67 146.84 240.59 147.16 239.88 147.5 240.6 148.27 240.72 147.7 241.27 147.83 242.01"/><polygon class="cls-1" points="154.59 239.99 154.2 240.64 154.51 241.36 153.74 241.18 153.17 241.71 153.12 240.92 152.43 240.57 153.16 240.26 153.31 239.5 153.84 240.09 154.59 239.99"/><polygon class="cls-1" points="142.87 232.16 142.2 231.81 141.5 232.15 141.65 231.37 141.09 230.83 141.88 230.74 142.2 230.04 142.55 230.75 143.31 230.87 142.74 231.42 142.87 232.16"/><polygon class="cls-1" points="143.02 273.95 142.45 274.91 142.91 275.97 141.77 275.7 140.94 276.5 140.86 275.32 139.84 274.8 140.92 274.34 141.14 273.22 141.92 274.09 143.02 273.95"/><polygon class="cls-1" points="63.46 104.79 63.35 104.78 63.97 87.73 64.09 87.73 63.46 104.79"/><polygon class="cls-1" points="61.33 117.16 61.22 117.14 63.35 104.78 63.46 104.79 61.33 117.16"/><polygon class="cls-1" points="61.91 118.23 61.84 118.14 68.72 112.41 68.79 112.5 61.91 118.23"/><polygon class="cls-1" points="68.81 112.48 68.71 112.42 73.47 103.82 73.57 103.88 68.81 112.48"/><polygon class="cls-1" points="67.17 122.4 61.52 117.97 61.59 117.88 67.24 122.31 67.17 122.4"/><polygon class="cls-1" points="65.91 125.79 65.81 125.75 67.15 122.33 67.25 122.37 65.91 125.79"/><polygon class="cls-1" points="71.23 129.54 65.83 125.82 65.89 125.72 71.29 129.45 71.23 129.54"/><polygon class="cls-1" points="82.74 128.67 71.26 129.55 71.25 129.44 82.73 128.55 82.74 128.67"/><rect class="cls-1" x="81.33" y="123.6" width=".11" height="5.24" transform="translate(-47.92 49.83) rotate(-26.61)"/><polygon class="cls-1" points="80.26 123.85 80.18 123.76 85.45 118.94 85.52 119.02 80.26 123.85"/><polygon class="cls-1" points="89.61 118.16 85.56 118.97 85.54 118.86 89.58 118.05 89.61 118.16"/><polygon class="cls-1" points="97.92 119.38 89.69 118.12 89.71 118 97.93 119.26 97.92 119.38"/><polygon class="cls-1" points="64.68 115.78 64.13 117.58 65.32 118.67 63.5 118.97 63.99 120.51 62.36 119.95 61.71 121.45 60.94 120.08 59.42 120.59 60.06 118.78 58.24 118.05 60.04 117.1 59.54 115.06 61.44 116.01 62.6 114.44 63.08 116.44 64.68 115.78"/><polygon class="cls-1" points="66.97 85.55 66.41 87.36 67.61 88.44 65.78 88.75 66.27 90.28 64.65 89.73 63.99 91.23 63.23 89.86 61.71 90.37 62.34 88.56 60.53 87.83 62.32 86.87 61.83 84.83 63.73 85.79 64.89 84.21 65.37 86.21 66.97 85.55"/><polygon class="cls-1" points="100.03 116.2 100.11 118.08 101.6 118.7 99.99 119.6 100.97 120.88 99.25 120.91 99.14 122.54 97.96 121.51 96.7 122.5 96.69 120.58 94.73 120.51 96.1 119.01 94.95 117.25 97.06 117.51 97.62 115.64 98.74 117.36 100.03 116.2"/><polygon class="cls-1" points="64.56 103.3 64.26 104.52 65.09 105.5 63.78 105.58 63.14 106.7 62.68 105.47 61.41 105.23 62.43 104.39 62.3 103.12 63.43 103.8 64.56 103.3"/><polygon class="cls-1" points="68.32 111.01 68.93 111.69 69.87 111.6 69.37 112.42 69.78 113.28 68.84 113.04 68.18 113.71 68.09 112.74 67.28 112.29 68.15 111.9 68.32 111.01"/><polygon class="cls-1" points="79.84 122.47 80.45 123.15 81.38 123.06 80.89 123.89 81.3 124.74 80.36 124.5 79.7 125.17 79.61 124.21 78.8 123.75 79.67 123.36 79.84 122.47"/><polygon class="cls-1" points="85.14 117.67 85.75 118.36 86.69 118.26 86.19 119.08 86.6 119.93 85.66 119.7 85 120.37 84.91 119.41 84.09 118.95 84.97 118.56 85.14 117.67"/><polygon class="cls-1" points="88.45 117.37 89.36 117.41 89.95 116.67 90.19 117.6 91.09 117.89 90.27 118.4 90.3 119.34 89.54 118.74 88.65 119.01 88.97 118.11 88.45 117.37"/><polygon class="cls-1" points="66.77 121 67.37 121.69 68.31 121.59 67.81 122.42 68.22 123.27 67.29 123.03 66.63 123.7 66.54 122.74 65.72 122.28 66.6 121.89 66.77 121"/><polygon class="cls-1" points="64.96 124.88 65.64 125.09 66.23 124.64 66.23 125.39 66.86 125.79 66.14 126.02 65.97 126.73 65.52 126.13 64.79 126.16 65.21 125.54 64.96 124.88"/><polygon class="cls-1" points="70.81 128.4 71.34 128.88 72.07 128.73 71.75 129.41 72.15 130.04 71.4 129.93 70.94 130.51 70.79 129.77 70.12 129.49 70.76 129.11 70.81 128.4"/><polygon class="cls-1" points="72.26 102.08 73.52 102.8 74.89 102.19 74.56 103.68 75.62 104.75 74.08 104.88 73.43 106.22 72.8 104.81 71.34 104.55 72.46 103.51 72.26 102.08"/><polygon class="cls-1" points="83.55 126.49 83.65 127.95 84.93 128.74 83.5 129.3 83.2 130.77 82.24 129.57 80.77 129.77 81.58 128.47 80.99 127.11 82.47 127.46 83.55 126.49"/><polygon class="cls-1" points="82.28 165.2 82.31 165.29 74.28 167.79 74.26 167.7 82.28 165.2"/><polygon class="cls-1" points="66.46 165.9 66.45 165.99 59.79 165.52 59.8 165.43 66.46 165.9"/><polygon class="cls-1" points="59.66 165.44 59.69 165.53 42.59 170.34 42.57 170.25 59.66 165.44"/><rect class="cls-1" x="36.46" y="173.52" width="7.7" height=".09" transform="translate(-123.84 104.26) rotate(-54.03)"/><polygon class="cls-1" points="53.57 152.02 53.65 152.07 42.61 170.2 42.53 170.15 53.57 152.02"/><polygon class="cls-1" points="57.68 144.06 57.76 144.1 53.65 152.07 53.57 152.02 57.68 144.06"/><polygon class="cls-1" points="57.77 143.95 63.76 149.1 63.7 149.17 57.71 144.02 57.77 143.95"/><polygon class="cls-1" points="63.76 149.1 71.3 153.44 71.26 153.52 63.7 149.17 63.76 149.1"/><polygon class="cls-1" points="71.32 153.57 77.21 159.44 77.15 159.5 71.26 153.63 71.32 153.57"/><polygon class="cls-1" points="77.36 159.47 82.33 165.21 82.26 165.27 77.29 159.53 77.36 159.47"/><polygon class="cls-1" points="35.42 175.94 36.83 175.42 36.94 174.14 38.01 175.15 38.75 174.1 39.18 175.39 40.44 175.08 39.95 176.23 41 176.95 39.55 177.41 39.97 178.91 38.5 178.24 37.45 179.54 37.13 177.88 35.58 177.9 36.61 176.64 35.42 175.94"/><polygon class="cls-1" points="79.49 164.55 80.9 164.03 81.01 162.75 82.08 163.75 82.82 162.7 83.25 164 84.51 163.69 84.01 164.83 85.07 165.55 83.62 166.02 84.03 167.52 82.56 166.85 81.52 168.14 81.2 166.48 79.65 166.51 80.68 165.24 79.49 164.55"/><polygon class="cls-1" points="54.9 143.43 56.31 142.92 56.42 141.64 57.49 142.64 58.23 141.59 58.66 142.88 59.93 142.57 59.43 143.72 60.48 144.44 59.03 144.91 59.45 146.41 57.98 145.73 56.93 147.03 56.61 145.37 55.06 145.39 56.09 144.13 54.9 143.43"/><polygon class="cls-1" points="40.87 171.11 41.6 170.08 41.19 168.86 42.44 169.27 43.45 168.45 43.43 169.78 44.52 170.46 43.26 170.87 42.91 172.1 42.12 171.05 40.87 171.11"/><polygon class="cls-1" points="58.52 166.99 58.83 165.77 58.01 164.78 59.32 164.71 59.97 163.59 60.42 164.84 61.69 165.08 60.66 165.91 60.78 167.19 59.66 166.5 58.52 166.99"/><polygon class="cls-1" points="73.4 168.72 73.63 167.85 73.04 167.14 73.97 167.1 74.44 166.3 74.76 167.18 75.66 167.35 74.93 167.95 75.01 168.86 74.22 168.37 73.4 168.72"/><polygon class="cls-1" points="52.71 153.15 52.93 152.28 52.35 151.58 53.28 151.53 53.74 150.73 54.07 151.61 54.96 151.78 54.24 152.38 54.32 153.29 53.52 152.8 52.71 153.15"/><polygon class="cls-1" points="76.3 160.5 76.52 159.64 75.93 158.93 76.87 158.88 77.33 158.08 77.65 158.97 78.55 159.14 77.83 159.73 77.91 160.64 77.11 160.15 76.3 160.5"/><polygon class="cls-1" points="69.46 153.98 70.44 153.24 70.42 151.98 71.46 152.73 72.65 152.27 72.24 153.49 73.05 154.45 71.76 154.46 71.07 155.51 70.64 154.3 69.46 153.98"/><polygon class="cls-1" points="65.8 166.86 65.99 166.14 65.5 165.54 66.28 165.5 66.67 164.83 66.94 165.58 67.69 165.72 67.08 166.22 67.15 166.98 66.48 166.56 65.8 166.86"/><polygon class="cls-1" points="62.78 150 62.97 149.28 62.48 148.68 63.26 148.64 63.65 147.98 63.92 148.72 64.67 148.86 64.06 149.36 64.13 150.12 63.46 149.71 62.78 150"/><polygon class="cls-1" points="74.32 167.71 74.3 167.8 66.81 166.03 66.83 165.94 74.32 167.71"/><polygon class="cls-1" points="80.66 202.37 85.12 196.52 85.19 196.57 80.74 202.42 80.66 202.37"/><rect class="cls-1" x="81.32" y="202.38" width=".09" height="5.29" transform="translate(-46.26 25.11) rotate(-13.7)"/><polygon class="cls-1" points="82.22 207.67 82.21 207.58 89.01 206.42 89.03 206.51 82.22 207.67"/><polygon class="cls-1" points="89.01 206.23 94.61 202.74 94.66 202.82 89.06 206.3 89.01 206.23"/><polygon class="cls-1" points="81.74 213.13 82.05 207.62 82.14 207.62 81.83 213.14 81.74 213.13"/><polygon class="cls-1" points="81.79 213.1 81.84 213.03 85.41 215.33 85.36 215.41 81.79 213.1"/><polygon class="cls-1" points="75.13 202.95 75.12 202.86 80.75 202.33 80.76 202.42 75.13 202.95"/><rect class="cls-1" x="73.16" y="198.71" width=".09" height="5.12" transform="translate(-127.73 127.13) rotate(-49.76)"/><polygon class="cls-1" points="71.29 199.54 70.7 193.42 70.79 193.41 71.38 199.53 71.29 199.54"/><polygon class="cls-1" points="70.84 193.53 70.85 193.45 76.59 194.34 76.57 194.43 70.84 193.53"/><polygon class="cls-1" points="69.8 193.83 69.83 193.75 71 194.23 70.97 194.31 69.8 193.83"/><polygon class="cls-1" points="64.93 190.44 64.97 190.36 70.76 193.38 70.72 193.46 64.93 190.44"/><polygon class="cls-1" points="69.82 207.48 71.1 199.66 71.19 199.67 69.91 207.5 69.82 207.48"/><rect class="cls-1" x="69.02" y="205.17" width="6.97" height=".09" transform="translate(-116.34 97.01) rotate(-40.73)"/><polygon class="cls-1" points="67.51 205.17 67.57 205.11 69.89 207.46 69.83 207.52 67.51 205.17"/><polygon class="cls-1" points="59.91 203.49 59.93 203.41 67.55 205.09 67.53 205.18 59.91 203.49"/><polygon class="cls-1" points="52.87 207.39 59.8 203.34 59.85 203.42 52.91 207.47 52.87 207.39"/><polygon class="cls-1" points="52.94 210.3 52.81 207.56 52.9 207.55 53.03 210.3 52.94 210.3"/><polygon class="cls-1" points="52.96 210.33 53.02 210.27 59.4 217.63 59.33 217.68 52.96 210.33"/><polygon class="cls-1" points="59.33 217.68 59.4 217.63 63.05 224.76 62.97 224.81 59.33 217.68"/><polygon class="cls-1" points="63.01 224.83 63.01 224.74 72.82 224.04 72.82 224.13 63.01 224.83"/><polygon class="cls-1" points="62.97 224.81 63.05 224.76 68.66 232.03 68.59 232.09 62.97 224.81"/><polygon class="cls-1" points="84.54 214 83.1 214.38 82.87 215.63 81.91 214.54 81.09 215.51 80.78 214.19 79.5 214.38 80.1 213.29 79.13 212.49 80.6 212.16 80.33 210.64 81.72 211.44 82.88 210.26 83.03 211.93 84.57 212.05 83.43 213.21 84.54 214"/><polygon class="cls-1" points="70.23 234.41 68.85 233.85 67.92 234.72 67.8 233.27 66.56 233.55 67.11 232.31 65.97 231.7 67.1 231.19 66.8 229.96 68.18 230.58 68.87 229.2 69.5 230.67 71.14 230.42 70.26 231.85 71.42 232.86 69.82 233.11 70.23 234.41"/><polygon class="cls-1" points="91.72 207.22 90.28 207.6 90.05 208.85 89.09 207.76 88.27 208.73 87.96 207.41 86.68 207.6 87.28 206.52 86.31 205.71 87.78 205.38 87.51 203.86 88.9 204.67 90.06 203.48 90.21 205.15 91.75 205.27 90.61 206.43 91.72 207.22"/><polygon class="cls-1" points="74.11 200.56 72.68 200.94 72.45 202.19 71.48 201.1 70.66 202.07 70.36 200.75 69.08 200.94 69.68 199.85 68.7 199.05 70.18 198.72 69.91 197.2 71.3 198 72.46 196.82 72.61 198.49 74.14 198.61 73 199.76 74.11 200.56"/><polygon class="cls-1" points="86.63 195.05 86.2 196.22 86.92 197.28 85.62 197.23 84.87 198.27 84.54 197 83.32 196.64 84.4 195.92 84.41 194.64 85.45 195.43 86.63 195.05"/><polygon class="cls-1" points="61.3 202.17 60.87 203.34 61.59 204.4 60.29 204.34 59.54 205.39 59.22 204.12 57.99 203.76 59.08 203.03 59.09 201.76 60.12 202.55 61.3 202.17"/><polygon class="cls-1" points="69.41 192.34 70.53 192.51 71.35 191.68 71.52 192.85 72.59 193.33 71.51 193.85 71.41 195 70.57 194.16 69.44 194.38 69.96 193.32 69.41 192.34"/><polygon class="cls-1" points="65.69 189.55 65.44 190.23 65.86 190.84 65.11 190.81 64.68 191.41 64.49 190.68 63.78 190.48 64.41 190.05 64.41 189.32 65.01 189.77 65.69 189.55"/><polygon class="cls-1" points="75.86 193.69 76.51 193.9 77.09 193.49 77.07 194.21 77.66 194.6 76.97 194.8 76.79 195.48 76.37 194.89 75.67 194.91 76.09 194.33 75.86 193.69"/><polygon class="cls-1" points="80.6 201.38 81 201.94 81.7 201.95 81.26 202.52 81.5 203.18 80.83 202.94 80.28 203.38 80.29 202.66 79.72 202.25 80.4 202.03 80.6 201.38"/><polygon class="cls-1" points="74.99 201.93 75.34 202.41 75.95 202.42 75.57 202.92 75.78 203.49 75.19 203.28 74.72 203.66 74.73 203.03 74.23 202.69 74.82 202.49 74.99 201.93"/><polygon class="cls-1" points="85.29 214.48 85.63 214.96 86.24 214.97 85.86 215.46 86.07 216.04 85.48 215.82 85.01 216.2 85.02 215.58 84.53 215.23 85.12 215.04 85.29 214.48"/><polygon class="cls-1" points="81.98 206.66 82.32 207.14 82.93 207.15 82.55 207.64 82.76 208.22 82.17 208 81.7 208.39 81.71 207.76 81.22 207.41 81.81 207.22 81.98 206.66"/><polygon class="cls-1" points="94.44 201.86 94.78 202.35 95.39 202.35 95.01 202.85 95.22 203.42 94.63 203.21 94.16 203.59 94.17 202.97 93.67 202.62 94.27 202.43 94.44 201.86"/><polygon class="cls-1" points="69.78 206.44 70.18 207 70.88 207.01 70.45 207.58 70.69 208.24 70.01 208 69.46 208.44 69.48 207.72 68.9 207.32 69.59 207.09 69.78 206.44"/><polygon class="cls-1" points="52.73 206.39 53.13 206.95 53.83 206.96 53.4 207.53 53.63 208.19 52.96 207.94 52.41 208.39 52.42 207.66 51.85 207.26 52.53 207.04 52.73 206.39"/><polygon class="cls-1" points="52.85 209.25 53.24 209.81 53.95 209.82 53.51 210.39 53.75 211.05 53.07 210.8 52.53 211.24 52.54 210.52 51.97 210.12 52.65 209.9 52.85 209.25"/><polygon class="cls-1" points="68.08 204.43 67.97 204.96 68.35 205.37 67.78 205.43 67.53 205.94 67.3 205.41 66.75 205.33 67.17 204.95 67.09 204.4 67.59 204.67 68.08 204.43"/><polygon class="cls-1" points="64.49 223.46 64.06 224.64 64.79 225.7 63.48 225.64 62.74 226.68 62.41 225.41 61.18 225.06 62.27 224.33 62.27 223.06 63.31 223.85 64.49 223.46"/><polygon class="cls-1" points="74.61 223.83 73.57 224.51 73.51 225.79 72.5 224.97 71.28 225.36 71.77 224.15 71 223.13 72.31 223.19 73.08 222.18 73.44 223.43 74.61 223.83"/><polygon class="cls-1" points="60.8 216.41 60.38 217.58 61.1 218.64 59.79 218.58 59.05 219.63 58.72 218.36 57.49 218 58.58 217.27 58.59 216 59.63 216.79 60.8 216.41"/><polygon class="cls-1" points="242.23 160.83 242.21 160.94 226.06 158.98 226.08 158.87 242.23 160.83"/><rect class="cls-1" x="245.61" y="158.11" width=".11" height="7.07" transform="translate(34.81 366.63) rotate(-77.53)"/><polygon class="cls-1" points="264.88 172.64 264.82 172.74 249.09 162.45 249.15 162.36 264.88 172.64"/><rect class="cls-1" x="247.37" y="155.19" width="26.71" height=".11" transform="translate(-42.72 156.47) rotate(-31)"/><polygon class="cls-1" points="251.11 159.39 251.16 161.3 252.65 161.96 251 162.84 251.96 164.15 250.22 164.14 250.08 165.79 248.9 164.72 247.6 165.7 247.64 163.75 245.66 163.64 247.08 162.15 245.95 160.34 248.08 160.65 248.69 158.77 249.79 160.54 251.11 159.39"/><polygon class="cls-1" points="241.38 159.63 242.19 160.16 243.11 159.81 242.84 160.78 243.49 161.53 242.47 161.55 241.98 162.41 241.63 161.46 240.67 161.23 241.46 160.59 241.38 159.63"/><polygon class="cls-1" points="224.89 156.83 226.23 157.71 227.76 157.13 227.3 158.74 228.39 159.98 226.7 160.02 225.89 161.44 225.3 159.86 223.72 159.48 225.01 158.41 224.89 156.83"/><polygon class="cls-1" points="263.52 170.49 264.86 171.37 266.39 170.78 265.93 172.39 267.02 173.64 265.33 173.67 264.52 175.1 263.93 173.52 262.35 173.13 263.64 172.07 263.52 170.49"/><polygon class="cls-1" points="273.2 146.75 273.12 147.98 274.09 148.79 272.84 149.09 272.42 150.29 271.76 149.18 270.5 149.17 271.33 148.18 270.99 146.97 272.19 147.44 273.2 146.75"/><polygon class="cls-1" points="125.53 222.53 125.68 222.58 123.33 230.14 123.18 230.09 125.53 222.53"/><rect class="cls-1" x="123.07" y="215.7" width=".16" height="7.88" transform="translate(-113.12 132.57) rotate(-40.49)"/><rect class="cls-1" x="117.1" y="213.02" width=".16" height="6.84" transform="translate(-105.81 320.61) rotate(-86.61)"/><rect class="cls-1" x="105.21" y="218.75" width="9.38" height=".16" transform="translate(-101.39 95.05) rotate(-32.97)"/><polygon class="cls-1" points="105.91 221.28 106.03 221.37 101.84 227.2 101.72 227.11 105.91 221.28"/><polygon class="cls-1" points="101.94 227.13 106.53 233.05 106.41 233.15 101.81 227.22 101.94 227.13"/><rect class="cls-1" x="108.48" y="232.68" width=".16" height="8.73" transform="translate(-100.96 81.87) rotate(-28.87)"/><rect class="cls-1" x="105.58" y="244.81" width="8.26" height=".16" transform="translate(-153.87 295.19) rotate(-76.67)"/><polygon class="cls-1" points="108.95 247.01 109.09 247.09 108.31 248.6 108.17 248.52 108.95 247.01"/><rect class="cls-1" x="104.79" y="250.91" width="4.71" height=".16" transform="translate(-161.04 200.46) rotate(-56.21)"/><polygon class="cls-1" points="105.78 252.89 105.89 253.01 99.81 258.91 99.7 258.8 105.78 252.89"/><polygon class="cls-1" points="98.05 259.72 105.78 263.67 105.71 263.81 97.98 259.86 98.05 259.72"/><rect class="cls-1" x="96.39" y="252.09" width=".16" height="7.97" transform="translate(-73.46 41.59) rotate(-17.74)"/><rect class="cls-1" x="93.49" y="247.42" width=".16" height="5.37" transform="translate(-132.77 108.41) rotate(-37.44)"/><polygon class="cls-1" points="123.21 223.69 123.97 222.52 123.34 221.51 124.69 221.66 124.66 220.47 125.7 221.19 126.46 220.26 126.73 221.39 127.91 221.34 127.09 222.49 128.24 223.37 126.77 223.69 126.71 225.23 125.55 224.18 124.41 225.06 124.48 223.54 123.21 223.69"/><polygon class="cls-1" points="105.41 250.23 106.4 248.72 105.58 247.41 107.34 247.61 107.29 246.07 108.64 247 109.63 245.79 109.98 247.25 111.51 247.19 110.45 248.68 111.93 249.83 110.03 250.24 109.95 252.24 108.45 250.87 106.98 252.01 107.06 250.04 105.41 250.23"/><polygon class="cls-1" points="94.64 261.12 95.63 259.61 94.81 258.29 96.57 258.49 96.52 256.95 97.87 257.89 98.86 256.68 99.21 258.14 100.74 258.07 99.68 259.57 101.16 260.71 99.26 261.12 99.18 263.13 97.68 261.75 96.21 262.9 96.29 260.93 94.64 261.12"/><polygon class="cls-1" points="122.61 231.57 122.49 230.49 121.52 229.95 122.56 229.49 122.74 228.38 123.49 229.25 124.58 229.05 124.01 230.04 124.5 231.04 123.38 230.82 122.61 231.57"/><polygon class="cls-1" points="119.8 217.48 120.05 216.81 119.64 216.2 120.38 216.24 120.81 215.64 121 216.37 121.7 216.58 121.08 216.99 121.07 217.72 120.47 217.27 119.8 217.48"/><polygon class="cls-1" points="112.4 216.25 113.28 215.93 113.55 215 114.15 215.78 115.11 215.71 114.54 216.51 114.92 217.39 113.97 217.11 113.23 217.72 113.19 216.74 112.4 216.25"/><polygon class="cls-1" points="104.97 222.4 105.29 221.52 104.76 220.72 105.74 220.77 106.3 219.99 106.55 220.94 107.47 221.22 106.65 221.76 106.64 222.72 105.86 222.12 104.97 222.4"/><polygon class="cls-1" points="100.78 228.12 101.1 227.24 100.56 226.44 101.54 226.48 102.11 225.7 102.35 226.66 103.28 226.93 102.45 227.48 102.44 228.43 101.66 227.83 100.78 228.12"/><polygon class="cls-1" points="109.81 241.74 110.08 241.02 109.64 240.37 110.44 240.41 110.9 239.77 111.1 240.55 111.85 240.77 111.18 241.22 111.17 242 110.54 241.51 109.81 241.74"/><polygon class="cls-1" points="104.95 264.56 105.22 263.84 104.78 263.19 105.58 263.23 106.04 262.59 106.24 263.37 106.99 263.59 106.32 264.04 106.31 264.82 105.67 264.33 104.95 264.56"/><polygon class="cls-1" points="90.92 248.45 91.43 247.88 91.27 247.11 91.99 247.44 92.66 247.02 92.56 247.82 93.17 248.31 92.38 248.47 92.08 249.19 91.67 248.5 90.92 248.45"/><polygon class="cls-1" points="105.4 253.91 105.38 253.23 104.8 252.85 105.47 252.61 105.63 251.93 106.05 252.5 106.74 252.43 106.34 253.02 106.6 253.66 105.92 253.48 105.4 253.91"/><polygon class="cls-1" points="104.24 233.59 105.45 232.73 105.46 231.21 106.7 232.15 108.14 231.63 107.6 233.1 108.56 234.28 107 234.25 106.13 235.49 105.65 234.02 104.24 233.59"/><polygon class="cls-1" points="93.65 253.3 94.29 252.22 93.77 251.03 95.05 251.33 95.99 250.44 96.08 251.76 97.23 252.34 96.01 252.86 95.77 254.12 94.88 253.15 93.65 253.3"/><polygon class="cls-1" points="185.16 222.09 185.25 222.06 187.72 228.31 187.63 228.35 185.16 222.09"/><polygon class="cls-1" points="184.54 230.23 187.6 228.35 187.65 228.43 184.59 230.31 184.54 230.23"/><rect class="cls-1" x="185.06" y="230.31" width=".09" height="12.16" transform="translate(-22.58 19.57) rotate(-5.7)"/><polygon class="cls-1" points="185.73 242.4 193.11 244.39 193.08 244.48 185.71 242.49 185.73 242.4"/><polygon class="cls-1" points="193.06 244.47 193.13 244.4 198.75 251.02 198.67 251.08 193.06 244.47"/><polygon class="cls-1" points="198.66 251.05 198.76 251.05 199.07 257.87 198.97 257.88 198.66 251.05"/><polygon class="cls-1" points="198.87 258.02 198.94 257.96 206.89 266.76 206.82 266.82 198.87 258.02"/><polygon class="cls-1" points="201.72 243.32 201.81 243.36 198.75 251.07 198.67 251.04 201.72 243.32"/><polygon class="cls-1" points="201.79 243.37 211.4 242.12 211.41 242.21 201.81 243.47 201.79 243.37"/><polygon class="cls-1" points="196.82 236.79 196.89 236.73 201.71 243.32 201.63 243.37 196.82 236.79"/><polygon class="cls-1" points="198.85 232.3 198.94 232.34 196.9 236.78 196.81 236.74 198.85 232.3"/><polygon class="cls-1" points="199.53 227.11 199.62 227.12 198.94 232.33 198.85 232.32 199.53 227.11"/><polygon class="cls-1" points="197.34 215.92 197.43 215.91 199.67 227.19 199.57 227.21 197.34 215.92"/><rect class="cls-1" x="185" y="239.52" width="12.41" height=".09" transform="translate(-87.01 110.93) rotate(-26.59)"/><polygon class="cls-1" points="205.19 269.26 205.07 267.69 203.81 267.21 205.13 266.42 204.28 265.37 205.71 265.3 205.76 263.94 206.78 264.77 207.81 263.91 207.86 265.51 209.5 265.52 208.39 266.81 209.4 268.25 207.63 268.09 207.22 269.67 206.23 268.26 205.19 269.26"/><polygon class="cls-1" points="184.56 244.54 184.47 243.27 183.45 242.89 184.52 242.25 183.84 241.41 184.99 241.36 185.03 240.26 185.84 240.93 186.67 240.23 186.72 241.52 188.03 241.53 187.14 242.57 187.95 243.72 186.53 243.59 186.19 244.86 185.4 243.73 184.56 244.54"/><polygon class="cls-1" points="196.22 218.06 196.13 216.74 195.07 216.34 196.18 215.67 195.46 214.8 196.67 214.74 196.71 213.59 197.56 214.29 198.43 213.57 198.47 214.92 199.85 214.93 198.92 216.01 199.76 217.21 198.28 217.08 197.93 218.4 197.1 217.22 196.22 218.06"/><polygon class="cls-1" points="212.45 243.33 211.58 242.81 210.62 243.23 210.86 242.2 210.13 241.45 211.2 241.37 211.67 240.45 212.09 241.42 213.1 241.62 212.32 242.33 212.45 243.33"/><polygon class="cls-1" points="203.07 244.51 202 244.22 201.12 244.94 201.07 243.78 200.09 243.21 201.18 242.82 201.4 241.71 202.13 242.61 203.26 242.52 202.64 243.5 203.07 244.51"/><polygon class="cls-1" points="199.45 252.05 198.78 251.65 198.05 251.98 198.23 251.18 197.67 250.61 198.49 250.55 198.85 249.84 199.17 250.59 199.95 250.74 199.35 251.28 199.45 252.05"/><polygon class="cls-1" points="188.66 229.82 187.7 229.26 186.65 229.72 186.91 228.58 186.11 227.75 187.29 227.67 187.8 226.65 188.26 227.73 189.38 227.94 188.52 228.72 188.66 229.82"/><polygon class="cls-1" points="193.81 245.45 193.13 245.05 192.39 245.38 192.57 244.58 192.01 243.99 192.84 243.93 193.2 243.22 193.52 243.97 194.31 244.12 193.7 244.68 193.81 245.45"/><polygon class="cls-1" points="185.06 223.28 184.83 222.53 184.06 222.27 184.74 221.81 184.72 221 185.37 221.51 186.12 221.22 185.85 222 186.33 222.65 185.5 222.64 185.06 223.28"/><polygon class="cls-1" points="184.37 231.55 184.14 230.8 183.37 230.54 184.05 230.07 184.03 229.26 184.68 229.77 185.43 229.49 185.16 230.27 185.64 230.91 184.81 230.91 184.37 231.55"/><polygon class="cls-1" points="199.53 233.35 198.86 232.96 198.13 233.28 198.31 232.48 197.75 231.91 198.57 231.85 198.93 231.14 199.25 231.89 200.03 232.04 199.43 232.59 199.53 233.35"/><polygon class="cls-1" points="200.28 228.18 199.61 227.79 198.88 228.11 199.06 227.32 198.5 226.74 199.32 226.68 199.68 225.97 200 226.72 200.78 226.87 200.18 227.42 200.28 228.18"/><polygon class="cls-1" points="197.55 237.82 196.88 237.43 196.15 237.75 196.33 236.96 195.78 236.38 196.59 236.32 196.95 235.61 197.27 236.36 198.05 236.51 197.45 237.06 197.55 237.82"/><polygon class="cls-1" points="200.96 257.87 199.84 258.51 199.69 259.84 198.7 258.91 197.41 259.24 198 258.01 197.27 256.9 198.62 257.06 199.48 256.05 199.78 257.38 200.96 257.87"/><polygon class="cls-1" points="92.37 86.85 84.99 80.59 85.05 80.52 92.44 86.77 92.37 86.85"/><polygon class="cls-1" points="92.48 86.87 92.43 86.79 96.31 84.01 96.37 84.09 92.48 86.87"/><rect class="cls-1" x="99.78" y="81.14" width=".1" height="7.02" transform="translate(-2.37 166.44) rotate(-78.97)"/><rect class="cls-1" x="107.08" y="82.7" width=".1" height="8.29" transform="translate(-13.75 153.22) rotate(-67.8)"/><polygon class="cls-1" points="123.12 93.42 110.85 88.51 110.89 88.42 123.16 93.33 123.12 93.42"/><polygon class="cls-1" points="123.14 93.17 117.02 84.13 117.1 84.08 123.23 93.11 123.14 93.17"/><polygon class="cls-1" points="116.97 83.92 112.21 74.74 112.3 74.7 117.06 83.87 116.97 83.92"/><rect class="cls-1" x="111.23" y="70.5" width=".1" height="4.3" transform="translate(-20.56 55.91) rotate(-25.9)"/><polygon class="cls-1" points="110.97 62.46 112.12 57.48 112.22 57.5 111.07 62.48 110.97 62.46"/><polygon class="cls-1" points="110.36 70.61 110.92 62.73 111.02 62.74 110.46 70.62 110.36 70.61"/><polygon class="cls-1" points="106.33 85.86 104.87 86.58 104.9 87.97 103.63 87.01 102.96 88.23 102.34 86.88 101.02 87.37 101.42 86.07 100.2 85.42 101.71 84.75 101.09 83.18 102.75 83.74 103.73 82.22 104.26 83.97 105.93 83.76 104.96 85.25 106.33 85.86"/><polygon class="cls-1" points="126.13 94.22 124.57 94.69 124.37 96.07 123.28 94.91 122.42 96.01 122.03 94.58 120.64 94.84 121.25 93.63 120.15 92.79 121.75 92.37 121.4 90.72 122.94 91.54 124.16 90.21 124.4 92.02 126.08 92.09 124.88 93.39 126.13 94.22"/><polygon class="cls-1" points="113.05 50.71 111.49 51.18 111.29 52.56 110.19 51.4 109.33 52.49 108.95 51.07 107.56 51.32 108.17 50.12 107.07 49.28 108.67 48.86 108.31 47.21 109.86 48.03 111.08 46.69 111.31 48.51 113 48.58 111.8 49.88 113.05 50.71"/><polygon class="cls-1" points="113.17 63.19 112.02 63.54 111.88 64.55 111.07 63.7 110.44 64.5 110.15 63.45 109.13 63.64 109.58 62.75 108.77 62.14 109.95 61.83 109.69 60.61 110.83 61.22 111.72 60.23 111.89 61.57 113.13 61.62 112.25 62.58 113.17 63.19"/><polygon class="cls-1" points="86.92 81.49 85.59 81.38 84.7 82.43 84.39 81.06 83.1 80.59 84.32 79.88 84.34 78.52 85.41 79.44 86.73 79.09 86.2 80.39 86.92 81.49"/><polygon class="cls-1" points="114.05 75.64 112.72 75.54 111.82 76.58 111.52 75.21 110.22 74.73 111.45 74.03 111.47 72.67 112.53 73.59 113.85 73.24 113.33 74.54 114.05 75.64"/><polygon class="cls-1" points="119.22 50.92 118.55 50.87 118.09 51.4 117.94 50.71 117.28 50.46 117.9 50.11 117.91 49.41 118.45 49.88 119.12 49.7 118.85 50.36 119.22 50.92"/><polygon class="cls-1" points="117.01 59.39 116.33 59.33 115.88 59.86 115.72 59.17 115.07 58.92 115.69 58.57 115.7 57.88 116.24 58.34 116.91 58.17 116.64 58.82 117.01 59.39"/><polygon class="cls-1" points="110.97 56.47 110.52 56.43 110.22 56.78 110.12 56.32 109.68 56.16 110.09 55.92 110.1 55.46 110.46 55.77 110.9 55.66 110.73 56.09 110.97 56.47"/><polygon class="cls-1" points="120.64 55.8 119.67 56.11 119.34 57.11 118.72 56.23 117.67 56.27 118.33 55.42 117.95 54.45 118.97 54.79 119.8 54.16 119.8 55.23 120.64 55.8"/><polygon class="cls-1" points="114.81 48.75 114.13 48.69 113.68 49.22 113.52 48.53 112.86 48.28 113.48 47.93 113.5 47.24 114.03 47.7 114.7 47.53 114.44 48.18 114.81 48.75"/><polygon class="cls-1" points="113.02 58.02 112.35 57.96 111.89 58.49 111.74 57.8 111.08 57.56 111.7 57.2 111.71 56.51 112.25 56.97 112.92 56.8 112.65 57.45 113.02 58.02"/><polygon class="cls-1" points="111.25 71.18 110.58 71.12 110.12 71.65 109.97 70.96 109.31 70.71 109.93 70.36 109.94 69.67 110.48 70.13 111.15 69.96 110.88 70.61 111.25 71.18"/><polygon class="cls-1" points="97.25 84.54 96.57 84.48 96.12 85.01 95.96 84.32 95.3 84.08 95.92 83.72 95.94 83.03 96.48 83.49 97.14 83.32 96.88 83.97 97.25 84.54"/><polygon class="cls-1" points="93.38 87.26 92.71 87.2 92.25 87.73 92.1 87.04 91.44 86.8 92.06 86.44 92.07 85.75 92.61 86.22 93.28 86.04 93.01 86.7 93.38 87.26"/><polygon class="cls-1" points="117.88 84.51 117.21 84.45 116.75 84.98 116.6 84.29 115.94 84.04 116.56 83.69 116.57 83 117.11 83.46 117.78 83.28 117.52 83.94 117.88 84.51"/><polygon class="cls-1" points="111.81 88.93 111.14 88.87 110.68 89.41 110.53 88.71 109.87 88.47 110.49 88.11 110.5 87.42 111.04 87.89 111.71 87.71 111.44 88.37 111.81 88.93"/><path class="cls-2" d="m208.13,159.63c0,30.09-24.39,54.48-54.47,54.48s-54.48-24.39-54.48-54.48,24.39-54.48,54.48-54.48,54.47,24.39,54.47,54.48Z"/><path class="cls-2" d="m153.65,214.71c-30.37,0-55.08-24.71-55.08-55.08s24.71-55.08,55.08-55.08,55.08,24.71,55.08,55.08-24.71,55.08-55.08,55.08Zm0-108.95c-29.7,0-53.87,24.17-53.87,53.87s24.17,53.87,53.87,53.87,53.87-24.17,53.87-53.87-24.17-53.87-53.87-53.87Z"/></svg>