<?xml version="1.0" encoding="UTF-8"?><svg id="Layer_1" xmlns="http://www.w3.org/2000/svg" xmlns:xlink="http://www.w3.org/1999/xlink" viewBox="0 0 200 400"><defs><style>.cls-1{filter:url(#luminosity-noclip-9);}.cls-2{filter:url(#luminosity-noclip-7);}.cls-3{filter:url(#luminosity-noclip-3);}.cls-4{filter:url(#luminosity-noclip-5);}.cls-5{mask:url(#mask);}.cls-6{filter:url(#luminosity-noclip);}.cls-7{fill:#fff;}.cls-8{fill:#10133c;}.cls-9{fill:#191919;}.cls-10{fill:url(#linear-gradient-8);}.cls-10,.cls-11,.cls-12,.cls-13,.cls-14{mix-blend-mode:multiply;}.cls-15{stroke:url(#linear-gradient-3);}.cls-15,.cls-16,.cls-17,.cls-18,.cls-19,.cls-20,.cls-21,.cls-22,.cls-23,.cls-24,.cls-25{fill:none;stroke-miterlimit:10;}.cls-15,.cls-16,.cls-17,.cls-18,.cls-19,.cls-21,.cls-22,.cls-23,.cls-25{stroke-width:.5px;}.cls-16{stroke:url(#linear-gradient-4);}.cls-17{stroke:url(#linear-gradient-2);}.cls-18{stroke:url(#linear-gradient-6);}.cls-19{stroke:url(#linear-gradient-5);}.cls-20{stroke-linecap:round;}.cls-20,.cls-24{stroke-width:.25px;}.cls-20,.cls-24,.cls-25{stroke:#fff;}.cls-21{stroke:url(#linear-gradient-33);}.cls-22{stroke:url(#linear-gradient-32);}.cls-23{stroke:url(#linear-gradient);}.cls-26{fill:url(#linear-gradient-9);}.cls-27{fill:url(#linear-gradient-7);}.cls-28{fill:url(#linear-gradient-14);}.cls-29{fill:url(#linear-gradient-18);}.cls-30{fill:url(#linear-gradient-22);}.cls-31{fill:url(#linear-gradient-20);}.cls-32{fill:url(#linear-gradient-21);}.cls-33{fill:url(#linear-gradient-23);}.cls-34{fill:url(#linear-gradient-16);}.cls-35{fill:url(#linear-gradient-17);}.cls-36{fill:url(#linear-gradient-13);}.cls-37{fill:url(#linear-gradient-11);}.cls-38{fill:url(#linear-gradient-27);}.cls-39{fill:url(#linear-gradient-24);}.cls-40{fill:url(#linear-gradient-26);}.cls-41{fill:url(#linear-gradient-25);}.cls-42{fill:url(#linear-gradient-28);}.cls-43{fill:url(#linear-gradient-29);}.cls-44{fill:url(#linear-gradient-30);}.cls-45{fill:url(#linear-gradient-31);}.cls-11{fill:url(#linear-gradient-19);}.cls-12{fill:url(#linear-gradient-15);}.cls-13{fill:url(#linear-gradient-12);}.cls-14{fill:url(#linear-gradient-10);}.cls-46{mask:url(#mask-3);}.cls-47{mask:url(#mask-2);}.cls-48{mask:url(#mask-5);}.cls-49{mask:url(#mask-4);}.cls-50{mask:url(#mask-1);}.cls-51{mask:url(#mask-7);}.cls-52{mask:url(#mask-6);}.cls-53{mask:url(#mask-8);}.cls-54{mask:url(#mask-9);}</style><linearGradient id="linear-gradient" x1="15.78" y1="110.66" x2="16.28" y2="110.66" gradientUnits="userSpaceOnUse"><stop offset="0" stop-color="#d59d6c"/><stop offset=".15" stop-color="#9d744f"/><stop offset=".3" stop-color="#6d5137"/><stop offset=".45" stop-color="#463323"/><stop offset=".6" stop-color="#271d14"/><stop offset=".74" stop-color="#110d08"/><stop offset=".88" stop-color="#040302"/><stop offset="1" stop-color="#000"/></linearGradient><linearGradient id="linear-gradient-2" y1="287.45" y2="287.45" xlink:href="#linear-gradient"/><linearGradient id="linear-gradient-3" x1="103.55" y1="380.92" x2="182.18" y2="380.92" gradientTransform="translate(-86.07)" xlink:href="#linear-gradient"/><linearGradient id="linear-gradient-4" x1="17.48" y1="380.92" x2="96.11" y2="380.92" gradientTransform="translate(200) rotate(-180) scale(1 -1)" xlink:href="#linear-gradient"/><linearGradient id="linear-gradient-5" x1="184.64" y1="109.83" x2="185.14" y2="109.83" xlink:href="#linear-gradient"/><linearGradient id="linear-gradient-6" x1="184.64" y1="286.4" x2="185.14" y2="286.4" xlink:href="#linear-gradient"/><linearGradient id="linear-gradient-7" x1="90.41" y1="318.6" x2="109.59" y2="318.6" gradientUnits="userSpaceOnUse"><stop offset="0" stop-color="#b68d5d"/><stop offset=".07" stop-color="#bc9462"/><stop offset=".51" stop-color="#e4c084"/><stop offset="1" stop-color="#b68d5d"/></linearGradient><filter id="luminosity-noclip" x="95.97" y="305.38" width="8.06" height="8.06" color-interpolation-filters="sRGB" filterUnits="userSpaceOnUse"><feFlood flood-color="#fff" result="bg"/><feBlend in="SourceGraphic" in2="bg"/></filter><filter id="luminosity-noclip-2" x="95.97" y="-8392" width="8.06" height="32766" color-interpolation-filters="sRGB" filterUnits="userSpaceOnUse"><feFlood flood-color="#fff" result="bg"/><feBlend in="SourceGraphic" in2="bg"/></filter><mask id="mask-1" x="95.97" y="-8392" width="8.06" height="32766" maskUnits="userSpaceOnUse"/><linearGradient id="linear-gradient-8" x1="97.15" y1="312.26" x2="102.85" y2="306.56" gradientUnits="userSpaceOnUse"><stop offset="0" stop-color="#fff"/><stop offset="1" stop-color="#000"/></linearGradient><mask id="mask" x="95.97" y="305.38" width="8.06" height="8.06" maskUnits="userSpaceOnUse"><g class="cls-6"><g class="cls-50"><circle class="cls-10" cx="100" cy="309.41" r="4.03"/></g></g></mask><linearGradient id="linear-gradient-9" x1="97.15" y1="312.26" x2="102.85" y2="306.56" gradientUnits="userSpaceOnUse"><stop offset="0" stop-color="#e2b673"/><stop offset="1" stop-color="#000"/></linearGradient><filter id="luminosity-noclip-3" x="53.99" y="75.81" width="92.02" height="92.02" color-interpolation-filters="sRGB" filterUnits="userSpaceOnUse"><feFlood flood-color="#fff" result="bg"/><feBlend in="SourceGraphic" in2="bg"/></filter><filter id="luminosity-noclip-4" x="53.99" y="-8392" width="92.02" height="32766" color-interpolation-filters="sRGB" filterUnits="userSpaceOnUse"><feFlood flood-color="#fff" result="bg"/><feBlend in="SourceGraphic" in2="bg"/></filter><mask id="mask-3" x="53.99" y="-8392" width="92.02" height="32766" maskUnits="userSpaceOnUse"/><linearGradient id="linear-gradient-10" x1="-2395.62" y1="-3464.57" x2="-2330.58" y2="-3529.61" gradientTransform="translate(-2263.1 -3375.27) rotate(-180)" gradientUnits="userSpaceOnUse"><stop offset="0" stop-color="#fff"/><stop offset=".09" stop-color="#d6d6d6"/><stop offset=".23" stop-color="#9e9e9e"/><stop offset=".36" stop-color="#6e6e6e"/><stop offset=".5" stop-color="#464646"/><stop offset=".63" stop-color="#272727"/><stop offset=".76" stop-color="#111"/><stop offset=".89" stop-color="#040404"/><stop offset="1" stop-color="#000"/></linearGradient><mask id="mask-2" x="53.99" y="75.81" width="92.02" height="92.02" maskUnits="userSpaceOnUse"><g class="cls-3"><g class="cls-46"><path class="cls-14" d="m100,167.83c-25.37,0-46.01-20.64-46.01-46.01s20.64-46.01,46.01-46.01,46.01,20.64,46.01,46.01-20.64,46.01-46.01,46.01Zm0-91.22c-24.93,0-45.21,20.28-45.21,45.21s20.28,45.21,45.21,45.21,45.21-20.28,45.21-45.21-20.28-45.21-45.21-45.21Z"/></g></g></mask><linearGradient id="linear-gradient-11" x1="-2395.62" y1="-3464.57" x2="-2330.58" y2="-3529.61" gradientTransform="translate(-2263.1 -3375.27) rotate(-180)" xlink:href="#linear-gradient"/><filter id="luminosity-noclip-5" x="53.99" y="236.17" width="92.02" height="92.02" color-interpolation-filters="sRGB" filterUnits="userSpaceOnUse"><feFlood flood-color="#fff" result="bg"/><feBlend in="SourceGraphic" in2="bg"/></filter><filter id="luminosity-noclip-6" x="53.99" y="-8392" width="92.02" height="32766" color-interpolation-filters="sRGB" filterUnits="userSpaceOnUse"><feFlood flood-color="#fff" result="bg"/><feBlend in="SourceGraphic" in2="bg"/></filter><mask id="mask-5" x="53.99" y="-8392" width="92.02" height="32766" maskUnits="userSpaceOnUse"/><linearGradient id="linear-gradient-12" x1="67.48" y1="314.7" x2="132.52" y2="249.66" gradientTransform="matrix(1,0,0,1,0,0)" xlink:href="#linear-gradient-10"/><mask id="mask-4" x="53.99" y="236.17" width="92.02" height="92.02" maskUnits="userSpaceOnUse"><g class="cls-4"><g class="cls-48"><path class="cls-13" d="m100,328.19c-25.37,0-46.01-20.64-46.01-46.01s20.64-46.01,46.01-46.01,46.01,20.64,46.01,46.01-20.64,46.01-46.01,46.01Zm0-91.22c-24.93,0-45.21,20.28-45.21,45.21s20.28,45.21,45.21,45.21,45.21-20.28,45.21-45.21-20.28-45.21-45.21-45.21Z"/></g></g></mask><linearGradient id="linear-gradient-13" x1="67.48" y1="314.7" x2="132.52" y2="249.66" xlink:href="#linear-gradient"/><linearGradient id="linear-gradient-14" y1="85.35" y2="85.35" xlink:href="#linear-gradient-7"/><filter id="luminosity-noclip-7" x="95.97" y="72.13" width="8.06" height="8.06" color-interpolation-filters="sRGB" filterUnits="userSpaceOnUse"><feFlood flood-color="#fff" result="bg"/><feBlend in="SourceGraphic" in2="bg"/></filter><filter id="luminosity-noclip-8" x="95.97" y="-8392" width="8.06" height="32766" color-interpolation-filters="sRGB" filterUnits="userSpaceOnUse"><feFlood flood-color="#fff" result="bg"/><feBlend in="SourceGraphic" in2="bg"/></filter><mask id="mask-7" x="95.97" y="-8392" width="8.06" height="32766" maskUnits="userSpaceOnUse"/><linearGradient id="linear-gradient-15" x1="-34.44" y1="22.2" x2="-26.37" y2="22.2" gradientTransform="translate(105.8 38.97) rotate(-45)" xlink:href="#linear-gradient-8"/><mask id="mask-6" x="95.97" y="72.13" width="8.06" height="8.06" maskUnits="userSpaceOnUse"><g class="cls-2"><g class="cls-51"><circle class="cls-12" cx="100" cy="76.17" r="4.03"/></g></g></mask><linearGradient id="linear-gradient-16" x1="-34.44" y1="22.2" x2="-26.37" y2="22.2" gradientTransform="translate(105.8 38.97) rotate(-45)" xlink:href="#linear-gradient-9"/><linearGradient id="linear-gradient-17" x1="98.23" y1="17.74" x2="101.77" y2="17.74" xlink:href="#linear-gradient-7"/><linearGradient id="linear-gradient-18" x1="98.15" y1="379.06" x2="101.85" y2="379.06" xlink:href="#linear-gradient-7"/><filter id="luminosity-noclip-9" x="24.42" y="123.07" width="152.81" height="152.81" color-interpolation-filters="sRGB" filterUnits="userSpaceOnUse"><feFlood flood-color="#fff" result="bg"/><feBlend in="SourceGraphic" in2="bg"/></filter><filter id="luminosity-noclip-10" x="24.42" y="-8392" width="152.81" height="32766" color-interpolation-filters="sRGB" filterUnits="userSpaceOnUse"><feFlood flood-color="#fff" result="bg"/><feBlend in="SourceGraphic" in2="bg"/></filter><mask id="mask-9" x="24.42" y="-8392" width="152.81" height="32766" maskUnits="userSpaceOnUse"/><linearGradient id="linear-gradient-19" x1="-1010.29" y1="1281.21" x2="-1086.71" y2="1413.58" gradientTransform="translate(1448.22 1247.98) rotate(90)" gradientUnits="userSpaceOnUse"><stop offset="0" stop-color="#fff"/><stop offset=".54" stop-color="#000"/><stop offset="1" stop-color="#f1f1f1"/></linearGradient><mask id="mask-8" x="24.42" y="123.07" width="152.81" height="152.81" maskUnits="userSpaceOnUse"><g class="cls-1"><g class="cls-54"><path class="cls-11" d="m24.42,199.48c0-10.31,2.02-20.32,6-29.74,3.85-9.1,9.36-17.27,16.37-24.29,7.02-7.02,15.19-12.53,24.29-16.37,9.42-3.98,19.43-6,29.74-6s20.32,2.02,29.74,6c9.1,3.85,17.27,9.36,24.29,16.37,7.02,7.02,12.53,15.19,16.37,24.29,3.98,9.42,6,19.43,6,29.74s-2.02,20.32-6,29.74c-3.85,9.1-9.36,17.27-16.37,24.29-7.02,7.02-15.19,12.53-24.29,16.37-9.42,3.98-19.43,6-29.74,6s-20.32-2.02-29.74-6c-9.1-3.85-17.27-9.36-24.29-16.37-7.02-7.02-12.53-15.19-16.37-24.29-3.98-9.42-6-19.43-6-29.74Zm152.16,0c0-20.24-7.88-39.26-22.19-53.57-14.31-14.31-33.34-22.19-53.57-22.19s-39.26,7.88-53.57,22.19c-14.31,14.31-22.19,33.33-22.19,53.57s7.88,39.26,22.19,53.57c14.31,14.31,33.33,22.19,53.57,22.19s39.26-7.88,53.57-22.19c14.31-14.31,22.19-33.34,22.19-53.57Z"/></g></g></mask><linearGradient id="linear-gradient-20" x1="-1010.29" y1="1281.21" x2="-1086.71" y2="1413.58" gradientTransform="translate(1448.22 1247.98) rotate(90)" gradientUnits="userSpaceOnUse"><stop offset="0" stop-color="#e2b673"/><stop offset=".54" stop-color="#000"/><stop offset="1" stop-color="#d1a96b"/></linearGradient><linearGradient id="linear-gradient-21" x1="-975.86" y1="1348.07" x2="-968.98" y2="1348.07" gradientTransform="translate(1448.22 1247.98) rotate(90)" xlink:href="#linear-gradient-7"/><linearGradient id="linear-gradient-22" x1="-1127.7" y1="1348.07" x2="-1121.47" y2="1348.07" gradientTransform="translate(1448.22 1247.98) rotate(90)" xlink:href="#linear-gradient-7"/><linearGradient id="linear-gradient-23" x1="-1050.36" y1="1425.83" x2="-1045.65" y2="1421.12" gradientTransform="translate(1448.22 1247.98) rotate(90)" xlink:href="#linear-gradient-7"/><linearGradient id="linear-gradient-24" x1="1245.65" y1="811.17" x2="1250.36" y2="806.46" gradientTransform="translate(-632.12 1447.98) rotate(-90)" xlink:href="#linear-gradient-7"/><linearGradient id="linear-gradient-25" x1="-997.35" y1="1403.86" x2="-992.64" y2="1399.15" gradientTransform="translate(1448.22 1247.98) rotate(90)" xlink:href="#linear-gradient-7"/><linearGradient id="linear-gradient-26" x1="1298.99" y1="1404.19" x2="1303.7" y2="1399.48" gradientTransform="translate(1448.22 1447.98) rotate(-90) scale(1 -1)" xlink:href="#linear-gradient-7"/><linearGradient id="linear-gradient-27" x1="1687.99" y1="1040.45" x2="1692.7" y2="1035.74" gradientTransform="translate(-883.97 1944.34) rotate(-90)" xlink:href="#linear-gradient-7"/><linearGradient id="linear-gradient-28" x1="-202.06" y1="1439.23" x2="-197.35" y2="1434.52" gradientTransform="translate(1591 345.49) rotate(90)" xlink:href="#linear-gradient-7"/><linearGradient id="linear-gradient-29" x1="-1133.62" y1="1416.19" x2="-1108.11" y2="1416.19" gradientTransform="translate(1448.22 1247.98) rotate(90)" xlink:href="#linear-gradient-7"/><linearGradient id="linear-gradient-30" x1="-1129.41" y1="1416.11" x2="-1112.29" y2="1416.11" gradientTransform="translate(1448.22 1247.98) rotate(90)" xlink:href="#linear-gradient-7"/><linearGradient id="linear-gradient-31" x1="-989.56" y1="1279.67" x2="-963.96" y2="1279.67" gradientTransform="translate(1448.22 1247.98) rotate(90)" xlink:href="#linear-gradient-7"/><linearGradient id="linear-gradient-32" x1="103.55" y1="15.82" x2="182.18" y2="15.82" gradientTransform="translate(-86.07)" xlink:href="#linear-gradient"/><linearGradient id="linear-gradient-33" x1="17.48" y1="15.82" x2="96.11" y2="15.82" gradientTransform="translate(200) rotate(-180) scale(1 -1)" xlink:href="#linear-gradient"/></defs><rect class="cls-8" y="-.95" width="200" height="400.95"/><rect class="cls-25" x="-90.63" y="110" width="381.25" height="180" rx="15.44" ry="15.44" transform="translate(300 100) rotate(90)"/><line class="cls-23" x1="16.03" y1="193.71" x2="16.03" y2="27.61"/><line class="cls-17" x1="16.03" y1="204.4" x2="16.03" y2="370.5"/><line class="cls-15" x1="17.48" y1="380.92" x2="96.11" y2="380.92"/><line class="cls-16" x1="103.89" y1="380.92" x2="182.52" y2="380.92"/><line class="cls-19" x1="184.89" y1="192.78" x2="184.89" y2="26.88"/><line class="cls-18" x1="184.89" y1="203.45" x2="184.89" y2="369.35"/><path class="cls-20" d="m67.84,131.23c6.62,3.99,6.17,13.02,11,20.85,2.65,4.3,7.79,7.67,10.29,11.29,1.1,1.59,2.64,3.45,3.58,5.26.76,1.47,1.37,4.08,2.15,5.56,1.63,3.1,2.44,4.99,6.91,7.57,1.33.77,4.33,1.53,5.47.42.38-.37-1.39-2-1.57-2.21-3.53-3.84-5.24-7.99-6.3-12.24-.89-3.57-1.35-8.74-2.52-13.55-.83-3.41-2.31-7.93-4.87-11.08m-11.61-16.6c7.11,4.36,11.24,9.37,12.73,11.29,4.27,5.51,8.94,10.64,13.29,15.9,5.47,6.61,15.21,10.65,16.53,19.62.62,4.21,1.58,7.56,3.7,11.82.73,1.46,2.99,4.05,2.8,4.85-.06.26-2.57.33-2.96.25-4.94-1.05-7.7-9.05-10.04-14.71-.45-1.1-1.49-2.18-2.69-3.26-1.96-1.77-5.55-3.83-6.43-4.41-2.44-1.62-4.72-2.67-9.01-5.98m14.66,9.77c1.85,2.84-.66,10.86-1.36,13.24-1.68,5.78.25,11.96-1.09,11.24-4.61-2.47-3.98-7.36-3.2-12.61.81-5.52-.27-10.51-2.99-13.82m-5.86,9.77c.22,2.73-4.85,7.42-5.16,10.8-.16,1.81.33,4.01,1.85,4.75.35.17.55-1.92.76-2.68.3-1.08,1.03-2.68,2.17-4.15,1.76-2.27,3.58-3.15,4.78-5.67m1.47-12.82c.98,3.57.87,6.12.16,8.83m6.52-8.2c-3.01-1.16-7.76.16-11.35-2.31m-5.05,5.67c-.49,5.83-5.88,9.05-5.69,12.98.1,1.94,1.39,3.25,1.4,3.15.16-1.26.65-3.26,1.33-4.15,1.58-2.08,2.26-2,3.94-3.84,1.32-1.44,1.47-1.89,1.95-3.31"/><path class="cls-24" d="m90.01,253.17h2.49c.08,0,1.16-2.73,1.18-2.69.3.49.9,2.24,1.18,2.69.14.22,2.65.04,2.85.25.05.06-1.95,1.69-2.08,2.03-.08.21.5,2.04.5,2.8,0,.05-2.05-1.43-2.46-1.76-.13-.11-2.52,1.86-2.8,1.58-.12-.13.88-2.74.88-2.74l-1.75-2.16h0Zm37.88-62.72c0,1.26-.48,30.12-.48,39.28m-3.61,2.69h2.49c.08,0,1.16-2.73,1.18-2.69.3.49.9,2.24,1.18,2.69.14.22,2.65.04,2.85.25.05.06-1.95,1.69-2.08,2.03-.08.21.5,2.04.5,2.8,0,.05-2.05-1.43-2.46-1.76-.13-.11-2.52,1.86-2.8,1.58-.12-.13.88-2.74.88-2.74l-1.75-2.16h0Zm3.76-12.39c.74,0,1.33.58,1.33,1.29s-.6,1.29-1.33,1.29-1.33-.58-1.33-1.29.6-1.29,1.33-1.29h0Zm0-6.79c.74,0,1.33.58,1.33,1.29s-.6,1.29-1.33,1.29-1.33-.58-1.33-1.29.6-1.29,1.33-1.29h0Zm0-6.79c.74,0,1.33.58,1.33,1.29s-.6,1.29-1.33,1.29-1.33-.58-1.33-1.29.6-1.29,1.33-1.29h0Zm0,20.21c.74,0,1.33.58,1.33,1.29s-.6,1.29-1.33,1.29-1.33-.58-1.33-1.29.6-1.29,1.33-1.29h0Zm-17.29-30.5c.17,4.49-.06,9.2-.03,12.68.06,7.43-.08,11.11.03,18.63m-3.67,2.69h2.49c.08,0,1.16-2.73,1.18-2.69.3.49.9,2.24,1.18,2.69.14.22,2.65.04,2.85.25.05.06-1.95,1.69-2.08,2.03-.08.21.5,2.04.5,2.8,0,.05-2.05-1.43-2.46-1.76-.13-.11-2.52,1.86-2.8,1.58-.12-.13.88-2.74.88-2.74l-1.75-2.16h0Zm3.71-5.54c.74,0,1.33.58,1.33,1.29s-.6,1.29-1.33,1.29-1.33-.58-1.33-1.29.6-1.29,1.33-1.29h0Zm0-6.23c.74,0,1.33.58,1.33,1.29s-.6,1.29-1.33,1.29-1.33-.58-1.33-1.29.6-1.29,1.33-1.29h0Zm0-6.23c.74,0,1.33.58,1.33,1.29s-.6,1.29-1.33,1.29-1.33-.58-1.33-1.29.6-1.29,1.33-1.29h0Zm0-6.23c.74,0,1.33.58,1.33,1.29s-.6,1.29-1.33,1.29-1.33-.58-1.33-1.29.6-1.29,1.33-1.29h0Zm-9.59,4.9h2.49c.08,0,1.16-2.73,1.18-2.69.3.49.9,2.24,1.18,2.69.14.22,2.65.04,2.85.25.05.06-1.95,1.69-2.08,2.03-.08.21.5,2.04.5,2.8,0,.05-2.05-1.43-2.46-1.76-.13-.11-2.52,1.86-2.8,1.58-.12-.13.88-2.74.88-2.74l-1.75-2.16h0Zm3.96-28c0,2.08-.18,21.89-.36,25.31m.05-2.57c.74,0,1.33.58,1.33,1.29s-.6,1.29-1.33,1.29-1.33-.58-1.33-1.29.6-1.29,1.33-1.29h0Zm.17-5.95c.74,0,1.33.58,1.33,1.29s-.6,1.29-1.33,1.29-1.33-.58-1.33-1.29.6-1.29,1.33-1.29h0Zm.17-5.95c.74,0,1.33.58,1.33,1.29s-.6,1.29-1.33,1.29-1.33-.58-1.33-1.29.6-1.29,1.33-1.29h0Zm-10.3,1.04c.06,4.88-.11,8.08-.14,12.29-.04,7.16-.61,38.85-.61,43.49m.07-2.58c.74,0,1.33.58,1.33,1.29s-.6,1.29-1.33,1.29-1.33-.58-1.33-1.29.6-1.29,1.33-1.29h0Zm0-6.65c.74,0,1.33.58,1.33,1.29s-.6,1.29-1.33,1.29-1.33-.58-1.33-1.29.6-1.29,1.33-1.29h0Zm.17-6.65c.74,0,1.33.58,1.33,1.29s-.6,1.29-1.33,1.29-1.33-.58-1.33-1.29.6-1.29,1.33-1.29h0Zm0-6.65c.74,0,1.33.58,1.33,1.29s-.6,1.29-1.33,1.29-1.33-.58-1.33-1.29.6-1.29,1.33-1.29h0Zm.17-6.65c.74,0,1.33.58,1.33,1.29s-.6,1.29-1.33,1.29-1.33-.58-1.33-1.29.6-1.29,1.33-1.29h0Zm.17-6.65c.74,0,1.33.58,1.33,1.29s-.6,1.29-1.33,1.29-1.33-.58-1.33-1.29.6-1.29,1.33-1.29h0Z"/><path class="cls-24" d="m107.69,250.68c.33.02,3.44-1.87,5.37-3.59,2.19-1.96,4.09-5.16,4.09-5.16,0,0-2.96,1.76-5.46,4.01-1.44,1.3-2.59,2.58-3.99,4.74h0Z"/><path class="cls-24" d="m117.18,250.81c.02-.3-2.04-3.16-3.92-4.92-2.14-2.01-5.62-3.75-5.62-3.75,0,0,1.91,2.72,4.37,5.01,1.42,1.32,2.81,2.37,5.16,3.66h0Z"/><path class="cls-24" d="m112.72,240.18c-.24.21-1.02,3.6-1.08,6.1-.07,2.84,1,6.36,1,6.36,0,0,.77-3.21.84-6.46.04-1.88-.11-3.54-.75-6h0Z"/><path class="cls-24" d="m105.91,246.39c.22.22,3.82.88,6.48.88,3.03,0,6.81-1.07,6.81-1.07,0,0-3.4-.65-6.87-.65-2,0-3.78.18-6.41.83h0Z"/><path class="cls-24" d="m84.51,231.24c.81,0,1.47.62,1.47,1.37s-.66,1.37-1.47,1.37-1.47-.62-1.47-1.37.66-1.37,1.47-1.37h0Z"/><path class="cls-24" d="m83.12,264.08c.81,0,1.47.62,1.47,1.37s-.66,1.37-1.47,1.37-1.47-.62-1.47-1.37.66-1.37,1.47-1.37h0Z"/><path class="cls-24" d="m69.72,242.69c.81,0,1.47.62,1.47,1.37s-.66,1.37-1.47,1.37-1.47-.62-1.47-1.37.66-1.37,1.47-1.37h0Z"/><path class="cls-24" d="m76.89,252.53c.27.01,2.79-1.52,4.35-2.91,1.78-1.59,3.32-4.18,3.32-4.18,0,0-2.4,1.42-4.43,3.25-1.17,1.06-2.1,2.09-3.24,3.84h0Z"/><path class="cls-24" d="m84.59,252.64c.01-.24-1.65-2.56-3.18-3.99-1.73-1.63-4.56-3.04-4.56-3.04,0,0,1.55,2.2,3.55,4.07,1.15,1.07,2.28,1.93,4.19,2.97h0Z"/><path class="cls-24" d="m103.41,262.06c0,.25,1.68,2.61,3.21,4.07,1.74,1.66,4.55,3.07,4.55,3.07,0,0-1.57-2.25-3.57-4.14-1.15-1.09-2.28-1.95-4.19-3h0Zm.03,7.27c.26,0,2.72-1.6,4.23-3.06,1.72-1.66,3.19-4.35,3.19-4.35,0,0-2.34,1.5-4.3,3.41-1.13,1.1-2.03,2.18-3.12,4h0Z"/><path class="cls-27" d="m100,328.19c-5.29,0-9.59-4.3-9.59-9.59s4.3-9.59,9.59-9.59,9.59,4.3,9.59,9.59-4.3,9.59-9.59,9.59Zm0-18.37c-4.84,0-8.79,3.94-8.79,8.79s3.94,8.79,8.79,8.79,8.79-3.94,8.79-8.79-3.94-8.79-8.79-8.79Z"/><g class="cls-5"><circle class="cls-26" cx="100" cy="309.41" r="4.03"/></g><g class="cls-47"><path class="cls-37" d="m100,167.83c-25.37,0-46.01-20.64-46.01-46.01s20.64-46.01,46.01-46.01,46.01,20.64,46.01,46.01-20.64,46.01-46.01,46.01Zm0-91.22c-24.93,0-45.21,20.28-45.21,45.21s20.28,45.21,45.21,45.21,45.21-20.28,45.21-45.21-20.28-45.21-45.21-45.21Z"/></g><g class="cls-49"><path class="cls-36" d="m100,328.19c-25.37,0-46.01-20.64-46.01-46.01s20.64-46.01,46.01-46.01,46.01,20.64,46.01,46.01-20.64,46.01-46.01,46.01Zm0-91.22c-24.93,0-45.21,20.28-45.21,45.21s20.28,45.21,45.21,45.21,45.21-20.28,45.21-45.21-20.28-45.21-45.21-45.21Z"/></g><path class="cls-28" d="m100,94.94c-5.29,0-9.59-4.3-9.59-9.59s4.3-9.59,9.59-9.59,9.59,4.3,9.59,9.59-4.3,9.59-9.59,9.59Zm0-18.37c-4.84,0-8.79,3.94-8.79,8.79s3.94,8.79,8.79,8.79,8.79-3.94,8.79-8.79-3.94-8.79-8.79-8.79Z"/><g class="cls-52"><circle class="cls-34" cx="100" cy="76.17" r="4.03"/></g><path class="cls-7" d="m100.31,378.82h-.63v-94.4c0-.17.14-.31.31-.31h0c.17,0,.31.14.31.31v94.4Z"/><path class="cls-7" d="m100,115.08h0c-.17,0-.3-.15-.3-.33V17.28h.6v97.48c0,.18-.13.33-.3.33Z"/><path class="cls-35" d="m98.23,17.74c0-1.06.79-1.92,1.77-1.92s1.77.86,1.77,1.92-.79,1.92-1.77,1.92-1.77-.86-1.77-1.92Z"/><path class="cls-29" d="m98.15,379.06c0-1.02.83-1.85,1.85-1.85s1.85.83,1.85,1.85-.83,1.85-1.85,1.85-1.85-.83-1.85-1.85Z"/><g class="cls-53"><path class="cls-31" d="m24.42,199.48c0-10.31,2.02-20.32,6-29.74,3.85-9.1,9.36-17.27,16.37-24.29,7.02-7.02,15.19-12.53,24.29-16.37,9.42-3.98,19.43-6,29.74-6s20.32,2.02,29.74,6c9.1,3.85,17.27,9.36,24.29,16.37,7.02,7.02,12.53,15.19,16.37,24.29,3.98,9.42,6,19.43,6,29.74s-2.02,20.32-6,29.74c-3.85,9.1-9.36,17.27-16.37,24.29-7.02,7.02-15.19,12.53-24.29,16.37-9.42,3.98-19.43,6-29.74,6s-20.32-2.02-29.74-6c-9.1-3.85-17.27-9.36-24.29-16.37-7.02-7.02-12.53-15.19-16.37-24.29-3.98-9.42-6-19.43-6-29.74Zm152.16,0c0-20.24-7.88-39.26-22.19-53.57-14.31-14.31-33.34-22.19-53.57-22.19s-39.26,7.88-53.57,22.19c-14.31,14.31-22.19,33.33-22.19,53.57s7.88,39.26,22.19,53.57c14.31,14.31,33.33,22.19,53.57,22.19s39.26-7.88,53.57-22.19c14.31-14.31,22.19-33.34,22.19-53.57Z"/></g><circle class="cls-9" cx="100.15" cy="275.56" r="3.11" transform="translate(-192.37 255.65) rotate(-66.13)"/><path class="cls-32" d="m96.71,275.55c0-.72.23-1.42.66-2.02.54-.74,1.34-1.23,2.24-1.37.91-.14,1.81.08,2.56.62.74.54,1.23,1.34,1.37,2.24.14.91-.08,1.81-.62,2.56-.54.74-1.34,1.23-2.24,1.37-.91.14-1.81-.08-2.56-.62-.74-.54-1.23-1.34-1.37-2.24-.03-.18-.04-.36-.04-.54Zm6.23.01c0-.15-.01-.29-.03-.44-.12-.74-.51-1.39-1.12-1.83-.6-.44-1.34-.62-2.08-.5-.74.12-1.39.51-1.83,1.12-.44.6-.62,1.34-.5,2.08.12.74.51,1.39,1.12,1.83.6.44,1.34.62,2.08.5h0c.74-.12,1.39-.51,1.83-1.12.35-.48.54-1.05.54-1.64Z"/><path class="cls-30" d="m100.63,126.47c-1.7.27-3.29-.89-3.56-2.59-.27-1.7.89-3.29,2.59-3.56,1.7-.27,3.29.89,3.56,2.59.27,1.7-.89,3.29-2.59,3.56Z"/><path class="cls-9" d="m23.03,202.32c-.63-.46-1.04-1.13-1.16-1.89-.02-.15-.03-.3-.03-.45h5.8c0,.62-.19,1.21-.56,1.71-.45.63-1.13,1.04-1.89,1.16-.76.12-1.53-.06-2.16-.52Z"/><path class="cls-33" d="m25.26,203.26c.88-.14,1.65-.61,2.17-1.33.52-.72.73-1.6.6-2.48-.14-.88-.61-1.65-1.33-2.17-.72-.52-1.6-.73-2.48-.6-.88.14-1.65.61-2.17,1.33-.42.57-.64,1.25-.64,1.95,0,.17.01.35.04.52.14.88.61,1.65,1.33,2.17.72.52,1.6.73,2.48.6Zm-2.22-.94c-.63-.46-1.04-1.13-1.16-1.89-.02-.15-.03-.3-.03-.45h5.8c0,.62-.19,1.21-.56,1.71-.45.63-1.13,1.04-1.89,1.16-.76.12-1.53-.06-2.16-.52Z"/><path class="cls-9" d="m178.4,197.63c.63.46,1.04,1.13,1.16,1.89.02.15.03.3.03.45h-5.8c0-.62.19-1.21.56-1.71.45-.63,1.13-1.04,1.89-1.16.76-.12,1.53.06,2.16.52Z"/><path class="cls-39" d="m176.18,196.69c-.88.14-1.65.61-2.17,1.33-.52.72-.73,1.6-.6,2.48.14.88.61,1.65,1.33,2.17.72.52,1.6.73,2.48.6.88-.14,1.65-.61,2.17-1.33.42-.57.64-1.25.64-1.95,0-.17-.01-.35-.04-.52-.14-.88-.61-1.65-1.33-2.17-.72-.52-1.6-.73-2.48-.6Zm2.22.94c.63.46,1.04,1.13,1.16,1.89.02.15.03.3.03.45h-5.8c0-.62.19-1.21.56-1.71.45-.63,1.13-1.04,1.89-1.16.76-.12,1.53.06,2.16.52Z"/><path class="cls-9" d="m44.15,254.34c-.51-.98-.44-2.17.22-3.06.46-.63,1.13-1.04,1.89-1.16.77-.12,1.53.07,2.16.52.78.56,1.19,1.44,1.19,2.34,0,.46-.11.92-.34,1.35-.19-.28-.44-.54-.73-.75-1.39-1.01-3.34-.7-4.35.69-.02.02-.03.05-.04.07Z"/><path class="cls-41" d="m47.23,256.27c.88-.14,1.65-.61,2.17-1.33.07-.09.13-.19.19-.3.85-1.48.46-3.35-.92-4.35-.72-.52-1.6-.74-2.48-.6-.88.14-1.65.61-2.17,1.33-.42.58-.64,1.27-.64,1.96,0,.57.15,1.15.45,1.66.23.4.54.75.92,1.03.58.42,1.26.64,1.96.64.17,0,.35-.01.52-.04Zm-2.86-5c.46-.63,1.13-1.04,1.89-1.16.77-.12,1.53.07,2.16.52.78.56,1.19,1.44,1.19,2.34,0,.46-.11.92-.34,1.35-.19-.28-.44-.54-.73-.75-1.39-1.01-3.34-.7-4.35.69-.02.02-.03.05-.04.07-.51-.98-.44-2.17.22-3.06Z"/><path class="cls-9" d="m43.82,145.28c-.51.98-.44,2.17.22,3.06.46.63,1.13,1.04,1.89,1.16.77.12,1.53-.07,2.16-.52.78-.56,1.19-1.44,1.19-2.34,0-.46-.11-.92-.34-1.35-.19.28-.44.54-.73.75-1.39,1.01-3.34.7-4.35-.69-.02-.02-.03-.05-.04-.07Z"/><path class="cls-40" d="m46.38,143.3c-.7,0-1.38.22-1.96.64-.38.28-.69.62-.92,1.03-.3.52-.45,1.09-.45,1.66,0,.69.21,1.38.64,1.96.52.72,1.3,1.19,2.17,1.33.88.14,1.76-.07,2.48-.6,1.38-1,1.78-2.87.92-4.35-.06-.11-.13-.21-.19-.3-.52-.72-1.29-1.19-2.17-1.33-.18-.03-.35-.04-.52-.04Zm-2.56,1.98s.03.05.04.07c1.01,1.39,2.96,1.7,4.35.69.29-.22.54-.47.73-.75.23.43.34.89.34,1.35,0,.9-.42,1.78-1.19,2.34-.63.45-1.39.64-2.16.52-.76-.12-1.44-.53-1.89-1.16-.65-.9-.73-2.08-.22-3.06Z"/><path class="cls-9" d="m156.69,252.65c.51.98.44,2.17-.22,3.06-.46.63-1.13,1.04-1.89,1.16-.77.12-1.53-.07-2.16-.52-.78-.56-1.19-1.44-1.19-2.34,0-.46.11-.92.34-1.35.19.28.44.54.73.75,1.39,1.01,3.34.7,4.35-.69.02-.02.03-.05.04-.07Z"/><path class="cls-38" d="m153.61,250.71c-.88.14-1.65.61-2.17,1.33-.07.09-.13.19-.19.3-.85,1.48-.46,3.35.92,4.35.72.52,1.6.74,2.48.6.88-.14,1.65-.61,2.17-1.33.42-.58.64-1.27.64-1.96,0-.57-.15-1.15-.45-1.66-.23-.4-.54-.75-.92-1.03-.58-.42-1.26-.64-1.96-.64-.17,0-.35.01-.52.04Zm2.86,5c-.46.63-1.13,1.04-1.89,1.16-.77.12-1.53-.07-2.16-.52-.78-.56-1.19-1.44-1.19-2.34,0-.46.11-.92.34-1.35.19.28.44.54.73.75,1.39,1.01,3.34.7,4.35-.69.02-.02.03-.05.04-.07.51.98.44,2.17-.22,3.06Z"/><path class="cls-9" d="m151.56,147.14c-.51-.98-.44-2.17.22-3.06.46-.63,1.13-1.04,1.89-1.16.77-.12,1.53.07,2.16.52.78.56,1.19,1.44,1.19,2.34,0,.46-.11.92-.34,1.35-.19-.28-.44-.54-.73-.75-1.39-1.01-3.34-.7-4.35.69-.02.02-.03.05-.04.07Z"/><path class="cls-42" d="m154.64,149.08c.88-.14,1.65-.61,2.17-1.33.07-.09.13-.19.19-.3.85-1.48.46-3.35-.92-4.35-.72-.52-1.6-.74-2.48-.6-.88.14-1.65.61-2.17,1.33-.42.58-.64,1.27-.64,1.96,0,.57.15,1.15.45,1.66.23.4.54.75.92,1.03.58.42,1.26.64,1.96.64.17,0,.35-.01.52-.04Zm-2.86-5c.46-.63,1.13-1.04,1.89-1.16.77-.12,1.53.07,2.16.52.78.56,1.19,1.44,1.19,2.34,0,.46-.11.92-.34,1.35-.19-.28-.44-.54-.73-.75-1.39-1.01-3.34-.7-4.35.69-.02.02-.03.05-.04.07-.51-.98-.44-2.17.22-3.06Z"/><path class="cls-9" d="m30.15,129.06c.58,2.66,2.02,9.3,2.02,9.3l2.04-9.37c2.83-.62,9.07-1.97,9.07-1.97l-9.11-1.98c-.6-2.76-1.99-9.17-1.99-9.17l-1.98,9.1c-2.57.56-9.4,2.04-9.4,2.04l9.36,2.04Z"/><path class="cls-43" d="m19.28,127.02l10.64-2.31,2.25-10.34,2.26,10.41,10.35,2.25-10.31,2.24-2.31,10.6-2.29-10.54-10.6-2.3Zm12.89-9.64l-1.71,7.87-8.16,1.78,8.12,1.77,1.75,8.06,1.77-8.13,7.83-1.7-7.87-1.71-1.72-7.93Z"/><path class="cls-9" d="m29.51,127.15c-1.37,2.13-4.8,7.47-4.8,7.47l7.52-4.83c2.27,1.46,7.28,4.68,7.28,4.68l-4.7-7.32c1.42-2.22,4.73-7.36,4.73-7.36l-7.31,4.7c-2.07-1.33-7.55-4.85-7.55-4.85l4.83,7.52Z"/><path class="cls-44" d="m23.61,118.57l8.62,5.54,8.38-5.39-5.42,8.43,5.39,8.38-8.35-5.37-8.59,5.52,5.49-8.54-5.52-8.58Zm14.86,2.29l-6.25,4.01-6.48-4.17,4.15,6.45-4.12,6.4,6.45-4.15,6.22,4-4.02-6.25,4.05-6.3Z"/><path class="cls-9" d="m166.84,274.33l1.71,8.14,1.71-8.14,4.03,2.63-2.63-4.03,8.14-1.71-8.14-1.71,2.63-4.03s-2.06,1.35-4.03,2.63l-1.71-8.14s-1.03,4.88-1.71,8.14l-4.03-2.63s1.35,2.06,2.63,4.03l-8.14,1.71s4.88,1.03,8.14,1.71l-2.63,4.03,4.03-2.63Z"/><path class="cls-45" d="m155.74,271.22l9.17-1.93-3.21-4.91,4.91,3.21,1.93-9.17,1.93,9.17,4.91-3.21-3.21,4.91,9.17,1.93-9.17,1.93,3.21,4.91-4.91-3.21-1.93,9.17-1.93-9.17-4.91,3.21,3.21-4.91-9.17-1.93Zm10.22-1.49l-7.1,1.49,7.1,1.49-2.05,3.14,3.14-2.05,1.49,7.1,1.49-7.1,3.14,2.05-2.05-3.14,7.1-1.49-7.1-1.49,2.05-3.14-3.14,2.05-1.49-7.1-1.49,7.1-3.14-2.05,2.05,3.14Z"/><line class="cls-22" x1="17.48" y1="15.82" x2="96.11" y2="15.82"/><line class="cls-21" x1="103.89" y1="15.82" x2="182.52" y2="15.82"/></svg>